<svg width="382" height="382" viewBox="0 0 382 382" fill="none" xmlns="http://www.w3.org/2000/svg">
<mask id="mask0_116_342" style="mask-type:alpha" maskUnits="userSpaceOnUse" x="0" y="0" width="382" height="382">
<rect width="382" height="382" rx="16" fill="#C4C4C4"/>
</mask>
<g mask="url(#mask0_116_342)">
<path fill-rule="evenodd" clip-rule="evenodd" d="M221.021 87.846C221.537 68.6781 197.278 35.9562 157.536 41.6575C114.024 47.8994 82.4516 97.8959 88.7411 153.776L88.9807 155.922C92.8418 190.825 94.1319 218.319 87.4606 257.033C82.4728 285.978 117.942 350.061 196.4 339.924C274.859 329.786 317.955 235.706 280.93 191.315C231.478 132.023 219.891 129.798 221.021 87.846Z" fill="#5986F2"/>
<path fill-rule="evenodd" clip-rule="evenodd" d="M174.426 143.73C173.08 140.266 170.53 137.436 168.323 134.447C162.421 126.452 158.762 116.821 157.865 106.925C157.386 101.642 159.204 75.8574 168.814 69.8084C164.069 68.3477 159.204 66.8246 155.312 63.7425C151.421 60.6604 148.667 55.6215 149.714 50.7691C151.299 43.4246 160.838 40.2715 167.953 42.6855C175.068 45.0994 180.186 51.2065 184.922 57.0396C189.45 56.6582 190.574 49.986 194.71 48.1031C197.5 46.8331 200.743 48.1352 203.448 49.5779C211.318 53.7764 218.69 59.5336 222.852 67.4236C227.013 75.3137 227.374 85.613 222.071 92.7862C224.002 90.5749 228.005 93.3252 227.776 96.2523C227.548 99.1795 224.962 101.304 222.493 102.893C220.025 104.483 217.266 106.131 216.291 108.9C213.835 115.871 209.934 122.33 204.906 127.747C201.835 131.057 198.308 134.035 196.03 137.934C193.751 141.833 192.99 147.073 195.648 150.724C199.182 146.962 205.272 145.905 209.867 148.255C214.462 150.604 217.17 156.161 216.19 161.228C222.592 161.777 228.344 166.85 229.69 173.133C242.672 186.219 253.275 201.657 260.83 218.47C265.625 229.142 269.186 240.319 272.736 251.468C274.125 255.83 275.531 260.4 274.757 264.912C273.186 274.075 263.246 279.472 254.013 280.557C242.517 281.908 230.539 278.554 221.415 271.432C216.541 286.587 211.677 303.142 217.217 318.066C218.403 321.262 216.031 324.893 212.931 326.313C209.832 327.733 206.265 327.525 202.863 327.29C183.801 325.968 164.738 324.647 145.675 323.326C141.68 323.049 136.218 320.699 137.632 316.952C140.79 308.586 141.692 299.38 140.219 290.56C139.095 296.501 137.146 302.284 134.446 307.694C134.446 307.694 124.931 327.29 115.441 317.233C110.033 306.305 109.8 293.508 111.396 281.42C112.993 269.331 116.293 257.502 117.582 245.377C118.839 233.565 118.171 221.613 119.4 209.798C120.628 197.983 124.024 185.883 132.088 177.161C138.469 170.261 144.849 163.36 151.23 156.459C152.948 154.601 154.759 152.68 157.134 151.808C159.51 150.937 162.615 151.491 163.837 153.707C165.343 151.833 167.105 149.814 169.496 149.563C171.887 149.312 174.382 152.241 172.847 154.091C175.598 151.593 175.772 147.193 174.426 143.73Z" fill="#FCFCFC"/>
<path fill-rule="evenodd" clip-rule="evenodd" d="M225.296 173.133C238.277 186.219 248.881 201.657 256.435 218.47C261.23 229.142 264.791 240.319 268.341 251.468C269.73 255.83 271.136 260.4 270.362 264.912C268.791 274.075 258.851 279.473 249.618 280.557C238.122 281.908 226.881 277.854 217.758 270.732C212.884 285.887 207.282 303.142 212.822 318.066C213.324 319.419 214.634 320.949 214.076 322.256C213.315 324.039 210.324 325.494 208.537 326.313C208.066 326.529 209.323 322.07 209.268 315.526C209.174 304.39 204.505 265.699 215.496 268.255C242.34 274.498 262.579 273.53 263.003 266.871C265.158 233.062 223.949 166.85 225.296 173.133Z" fill="#F5F5F5"/>
<path fill-rule="evenodd" clip-rule="evenodd" d="M166.71 136.37L166.709 136.37C166.216 135.731 165.723 135.093 165.247 134.447C159.345 126.452 155.685 116.821 154.789 106.925C154.31 101.642 156.127 75.8574 165.737 69.8084C160.993 68.3477 156.127 66.8246 152.236 63.7425C148.344 60.6604 145.59 55.6215 146.638 50.7691C148.223 43.4246 157.761 40.2715 164.877 42.6855C171.992 45.0994 177.11 51.2065 181.846 57.0396C184.34 56.8295 185.801 54.711 187.302 52.5355C188.526 50.7612 189.776 48.949 191.634 48.1031C194.424 46.8331 197.667 48.1352 200.372 49.5779C208.242 53.7764 215.614 59.5336 219.775 67.4236C223.937 75.3137 224.297 85.613 218.995 92.7862C220.926 90.5749 224.929 93.3252 224.7 96.2523C224.472 99.1795 221.886 101.304 219.417 102.893L219.215 103.023L219.021 103.148C216.66 104.661 214.138 106.278 213.214 108.9C210.759 115.871 206.858 122.33 201.83 127.747C201.013 128.628 200.163 129.485 199.313 130.343C196.97 132.707 194.626 135.073 192.954 137.934C190.675 141.833 189.914 147.073 192.572 150.724C196.105 146.962 202.196 145.905 206.791 148.255C211.386 150.604 214.094 156.161 213.113 161.228C219.516 161.777 225.268 166.85 226.614 173.133C239.596 186.219 250.199 201.657 257.753 218.47C262.549 229.142 266.109 240.319 269.66 251.468C271.049 255.83 272.455 260.4 271.681 264.912C270.11 274.075 260.17 279.472 250.937 280.557C239.441 281.908 227.463 278.554 218.339 271.432C213.465 286.587 208.6 303.142 214.141 318.066C214.631 319.387 214.513 320.783 213.988 322.066C210.38 314.226 209.719 305.278 210.684 296.699C211.657 288.05 214.2 279.665 216.731 271.338C217.151 269.957 214.958 269.592 213.528 269.396C210.989 269.048 209.146 266.885 207.558 264.873L201.102 256.694C196.935 251.416 192.13 245.75 185.483 244.728C183.64 244.444 181.776 244.548 179.908 244.651H179.908H179.908H179.907H179.907H179.907H179.907H179.907H179.907H179.907H179.907H179.907H179.906H179.906H179.906H179.906C178.768 244.714 177.629 244.777 176.493 244.752C172.082 244.658 167.709 243.206 164.117 240.643C163.256 240.029 162.382 239.259 162.205 238.216C162.032 237.197 162.953 236.002 163.931 236.262L164 236.283L163.979 236.276L163.959 236.27C163.95 236.267 163.94 236.264 163.931 236.262C160.819 235.323 157.855 233.893 155.183 232.042C154.691 231.7 154.189 231.322 153.935 230.779C153.387 229.607 154.294 228.17 155.49 227.676C156.686 227.181 158.04 227.361 159.321 227.55C157.793 227.239 156.218 226.909 154.938 226.02C153.658 225.13 152.741 223.524 153.138 222.017C153.534 220.509 155.611 219.576 156.783 220.605C156.272 219.083 157.379 217.397 158.829 216.706C160.278 216.016 161.958 216.07 163.561 216.159C170.287 216.53 176.993 217.248 183.646 218.308L182.671 204.624C182.632 204.066 182.583 203.481 182.281 203.011C181.893 202.408 181.176 202.12 180.504 201.871C166.964 196.855 153.034 192.89 138.882 190.023L142.052 249.419C142.149 251.24 142.657 253.55 144.456 253.846C155.637 255.687 166.605 258.819 177.071 263.16C178.541 263.77 179.616 261.712 179.887 260.144L182.569 244.599C182.942 251.17 182.002 257.813 179.82 264.023C181.489 264.415 182.454 262.211 182.721 260.518L185.143 245.157C185.555 250.603 185.079 256.114 183.739 261.408C183.431 262.624 182.964 263.968 181.827 264.497C180.865 264.945 179.738 264.654 178.719 264.357L143.303 254.029C142.747 253.867 142.165 253.69 141.753 253.283C141.138 252.677 141.054 251.73 141.007 250.868L138.059 197.312C137.868 193.84 138.058 190.36 138.248 186.888L139.219 169.108C133.519 189.188 132.98 210.474 135.382 231.21C137.783 251.945 143.058 272.236 148.838 292.295C146.406 288.135 144.63 283.593 143.595 278.887C140.768 282.933 137.802 287.545 138.609 292.414C139.963 300.592 139.1 309.126 136.134 316.867C135.458 318.632 136.674 320.669 138.339 321.564C140.004 322.46 141.978 322.504 143.869 322.527L169.035 322.84C168.341 321.959 168.591 320.497 169.539 319.897C169.285 322.632 172.793 323.92 175.515 324.29C188.374 326.039 202.043 327.68 213.862 322.354C213.074 324.053 211.577 325.524 209.855 326.313C206.756 327.733 203.188 327.525 199.787 327.29L142.599 323.326C138.604 323.049 133.142 320.699 134.556 316.952C137.714 308.586 138.616 299.38 137.143 290.56C136.019 296.501 134.07 302.284 131.37 307.694C132.477 298.661 135.505 289.87 140.194 282.071C143.532 276.52 141.609 269.457 139.895 263.211C131.779 233.639 130.52 202.207 136.247 172.081C124.025 181.015 118.922 196.868 117.473 211.938C116.867 218.238 116.766 224.583 116.666 230.923C116.527 239.747 116.388 248.564 114.885 257.244C114.198 261.21 113.229 265.129 112.261 269.046C110.732 275.233 109.204 281.413 108.793 287.759C108.152 297.669 110.265 307.527 112.365 317.233C106.957 306.305 106.723 293.508 108.32 281.42C109.053 275.872 110.144 270.379 111.236 264.886C112.522 258.411 113.809 251.938 114.506 245.377C115.139 239.428 115.284 233.444 115.428 227.459C115.571 221.561 115.714 215.662 116.324 209.798C117.552 197.983 120.948 185.883 129.012 177.161L148.154 156.459C149.872 154.601 151.683 152.68 154.058 151.808C156.434 150.937 159.539 151.491 160.761 153.707C162.267 151.833 164.029 149.814 166.42 149.563C168.811 149.312 171.306 152.241 169.771 154.091C172.522 151.593 172.696 147.193 171.35 143.73C170.295 141.014 168.499 138.688 166.71 136.37ZM213.862 322.354C213.906 322.258 213.948 322.162 213.988 322.066C214.017 322.129 214.046 322.193 214.076 322.256L213.969 322.305L213.862 322.354ZM270.374 259.899C271.022 265.296 268.128 270.722 263.835 274.055C259.542 277.389 254.045 278.854 248.622 279.226C237.205 280.011 225.535 276.096 216.899 268.586C223.529 261.792 223.899 249.856 217.703 242.664C223.033 240.184 228.483 237.67 234.327 237.028C240.17 236.385 246.583 237.936 250.381 242.422C251.029 243.188 251.59 244.023 252.15 244.858L252.151 244.858L252.151 244.858L252.151 244.858L252.151 244.859L252.151 244.859L252.152 244.859L252.152 244.859L252.152 244.859L252.152 244.86L252.152 244.86L252.152 244.86L252.153 244.86L252.153 244.861L252.153 244.861C252.842 245.887 253.531 246.913 254.38 247.807C253.644 242.942 249.852 238.878 245.312 236.98C240.773 235.082 235.608 235.125 230.805 236.193C226.002 237.261 221.478 239.297 216.992 241.32C216.14 241.704 215.501 240.477 215.363 239.552L214.559 234.191C214.228 231.981 214.263 229.089 216.345 228.277C217.909 227.667 217.499 225.282 216.464 223.961C216.29 223.739 216.105 223.517 215.917 223.292C214.985 222.175 214.007 221.003 214.254 219.628C216.877 205.022 219.515 190.358 224.184 176.271C224.329 175.835 224.504 175.362 224.902 175.131C225.44 174.82 226.119 175.089 226.66 175.395C231.034 177.866 233.647 182.282 236.255 186.688L236.255 186.688L236.255 186.688L236.256 186.688L236.256 186.688L236.256 186.688L236.256 186.689L236.256 186.689L236.256 186.689L236.256 186.689L236.256 186.689L236.256 186.689L236.256 186.689L236.256 186.69L236.257 186.69C237.177 188.244 238.096 189.797 239.092 191.263C240.629 193.526 242.389 195.622 244.151 197.717C245.459 199.274 246.767 200.83 247.984 202.456C255.486 212.478 259.167 224.533 262.855 236.613L262.855 236.613C264.537 242.123 266.221 247.639 268.27 252.969C268.353 253.186 268.437 253.402 268.521 253.618L268.521 253.619C269.314 255.664 270.113 257.726 270.374 259.899ZM211.595 228.357C212.666 228.347 213.786 228.324 214.724 227.807C215.661 227.29 216.323 226.105 215.89 225.127C215.478 224.198 214.292 223.863 213.284 223.995C212.701 224.071 212.144 224.261 211.586 224.452L211.586 224.452L211.586 224.452L211.586 224.452L211.586 224.452L211.585 224.452L211.585 224.453L211.585 224.453L211.585 224.453L211.585 224.453L211.584 224.453L211.584 224.453L211.584 224.453L211.584 224.453L211.584 224.453L211.583 224.453L211.583 224.453L211.583 224.453L211.583 224.453L211.583 224.453L211.583 224.453L211.583 224.453L211.582 224.453L211.582 224.453L211.582 224.453L211.582 224.453L211.582 224.453C211.177 224.592 210.771 224.731 210.355 224.826C208.281 225.3 206.163 224.675 204.058 224.053C201.778 223.38 199.512 222.71 197.328 223.445C198.74 221.107 198.647 218.215 198.559 215.467C198.554 215.323 198.549 215.18 198.545 215.037C198.097 200.446 201.334 185.756 207.874 172.705C205.46 174.432 203.728 177.086 203.118 179.992C203.046 180.337 202.988 180.687 202.93 181.037C202.782 181.936 202.634 182.835 202.237 183.649C200.629 186.95 196.086 187.194 192.43 186.864C189.433 186.594 186.293 186.201 183.852 184.441C182.628 183.558 181.642 182.374 180.662 181.195C179.357 179.627 178.062 178.07 176.226 177.253C173.181 175.899 169.927 177.027 166.635 178.17C163.661 179.201 160.655 180.244 157.744 179.477C156.104 179.044 154.969 181.058 154.477 182.681L152.332 189.754C151.331 185.888 152.554 181.527 155.418 178.743C154.191 177.939 154.521 176.287 154.848 174.652C155.18 172.995 155.508 171.356 154.211 170.63C150.297 168.44 149.522 163.24 149.188 158.767C144.207 160.606 141.366 165.989 140.49 171.225C139.974 174.312 139.98 177.444 139.986 180.58C139.99 182.764 139.994 184.95 139.822 187.123C154.838 190.063 169.638 194.101 184.066 199.194C184.949 199.506 185.877 199.853 186.466 200.581C187.1 201.365 187.219 202.432 187.312 203.435C187.783 208.509 188.227 213.792 186.412 218.553L186.428 203.716C186.429 202.895 186.288 201.867 185.506 201.615C184.29 201.223 183.72 203.082 183.82 204.355L184.689 215.384C184.807 216.894 185.027 218.595 186.242 219.499L164.412 217.306C162.144 217.078 159.426 217.04 158.1 218.894C158.318 220.667 160.438 221.411 162.187 221.776L176.083 224.673C171.734 225.572 167.164 224.766 163.05 223.095C162.738 222.968 162.426 222.836 162.114 222.703C160.812 222.151 159.504 221.597 158.108 221.412C156.377 221.184 154.421 221.655 153.416 223.083C159.633 227.194 166.859 229.769 174.276 230.515C174.231 231.32 173.158 231.561 172.354 231.503C170.262 231.35 168.25 230.737 166.236 230.123L166.236 230.123C165.301 229.838 164.366 229.552 163.423 229.313C160.446 228.558 157.108 228.308 154.466 229.873C160.414 234.724 168.256 236.41 175.776 237.947L163.324 237.682C165.526 241.6 170.467 243.044 174.956 243.282C176.283 243.352 177.623 243.35 178.961 243.348C182.15 243.344 185.335 243.34 188.349 244.31C193.82 246.069 197.782 250.712 201.442 255.142L208.499 263.686C209.461 264.851 211.294 264.98 212.654 264.322C214.014 263.663 214.973 262.393 215.725 261.083C217.22 258.479 218.108 255.421 217.626 252.458C217.144 249.495 215.099 246.695 212.218 245.85C207.27 244.399 203.757 240.001 201.328 235.452C200.494 233.89 199.745 232.279 198.997 230.668L198.997 230.668C197.565 227.587 196.135 224.51 194.116 221.791C193.511 220.975 192.852 220.189 192.193 219.404L192.193 219.403C190.564 217.461 188.937 215.52 188.131 213.143C192.277 217.154 195.795 221.813 198.52 226.898C198.815 227.449 199.141 228.044 199.712 228.3C200.077 228.464 200.492 228.463 200.893 228.459L211.595 228.357ZM210.454 103.962C211.456 103.832 212.248 103.08 212.965 102.368L216.451 98.9008C210.011 114.857 200.815 130.284 186.875 140.371C184.045 142.419 180.681 144.305 177.242 143.691C175.44 143.369 173.825 142.381 172.392 141.242C169.408 138.871 167.048 135.802 165.029 132.57C159.329 123.444 156.164 112.72 156.212 101.961C156.261 91.2019 159.551 80.4477 165.709 71.625C165.921 71.3217 166.158 71.0034 166.507 70.8826C166.862 70.76 167.251 70.8687 167.61 70.9778C180.516 74.9011 193.299 79.2302 205.934 83.9566C207.934 84.7048 208.767 87.0587 209.13 89.163C209.879 93.4971 209.679 97.9925 208.549 102.243C208.29 103.219 209.453 104.092 210.454 103.962ZM202.033 71.7024C203.555 71.7159 204.617 73.7519 203.757 75.0079C202.896 76.2639 200.614 76.0094 200.052 74.5947C199.421 73.0079 197.793 72.1466 196.258 71.3341L196.257 71.3337C196.094 71.2476 195.933 71.162 195.773 71.0762C190.614 68.2971 186.647 63.8841 182.7 59.4924L182.7 59.4924L182.7 59.4924L182.7 59.4923L182.7 59.4923L182.699 59.4922L182.699 59.4921L182.699 59.492L182.699 59.4919L182.699 59.4918L182.699 59.4917C181.664 58.3398 180.63 57.1894 179.576 56.0703C177.573 53.9439 175.473 51.9095 173.283 49.9757C170.882 47.855 168.335 45.8309 165.395 44.5584C162.455 43.2858 159.056 42.8221 156.03 43.8749C157.393 43.944 158.461 45.4972 158.037 46.7945C157.614 48.0918 155.835 48.7157 154.694 47.9672C153.553 47.2188 153.416 45.339 154.437 44.4336C151.343 45.3495 148.744 47.7965 147.642 50.8294C147.425 51.4274 147.264 52.0888 147.462 52.6932C147.574 53.034 147.794 53.3367 148.011 53.6359C148.318 54.0586 148.62 54.4743 148.606 54.9809C148.494 59.0356 152.464 62.7067 156.498 62.2789C157.288 62.1951 157.606 62.983 157.936 63.8003C158.094 64.1902 158.254 64.5869 158.47 64.8988C158.855 65.456 159.498 65.7664 160.114 66.0481C166.374 68.9117 172.852 71.2996 179.474 73.1844C180.241 73.4028 181.291 73.4938 181.617 72.7654C182.053 71.788 183.322 71.2805 184.312 71.6873C185.303 72.094 185.848 73.3469 185.472 74.349C185.303 74.7981 185.857 75.1621 186.308 75.3252L208.864 83.4805C208.448 81.8111 210.568 80.1519 212.089 80.9573C213.609 81.7628 213.427 84.4492 211.812 85.0425L220.056 89.1994L221.536 77.1014C221.605 76.5363 221.379 75.6958 220.834 75.8575C219.822 76.1571 218.63 75.5851 218.23 74.6087C217.831 73.6323 218.28 72.3887 219.212 71.8934C219.929 71.5122 220.196 70.5728 220.037 69.7765C219.879 68.9802 219.388 68.2955 218.899 67.6476C213.605 60.6392 206.898 54.6727 199.206 50.4323C197.144 49.2958 194.645 48.2718 192.515 49.2731C191.282 49.8528 190.452 50.9936 189.641 52.1089C189.512 52.2863 189.384 52.4631 189.254 52.6369C187.632 54.8114 185.625 56.6979 183.354 58.1824L190.541 65.4942C189.947 64.211 190.852 62.4822 192.245 62.239C193.638 61.9958 195.075 63.3158 194.95 64.7246C194.826 66.1334 193.18 67.181 191.851 66.6972C194.852 69.1221 198.175 71.668 202.033 71.7024ZM211.182 170.742C212.274 170.822 213.383 170.166 213.839 169.17C214.295 168.174 214.068 166.906 213.294 166.131C212.327 165.163 213.447 163.355 214.808 163.214C216.169 163.074 217.405 163.943 218.496 164.769L223.755 168.75C224.393 169.233 225.108 169.954 224.829 170.704C218.823 186.855 214.875 203.771 213.11 220.912C212.967 222.302 211.628 223.325 210.254 223.574C208.879 223.823 207.475 223.474 206.122 223.128L201.284 221.89C200.955 221.806 200.611 221.713 200.366 221.478C200.017 221.142 199.963 220.61 199.935 220.126C198.952 203.619 202.347 186.872 209.681 172.051C209.995 171.418 210.477 170.69 211.182 170.742ZM200.525 160.388C199.216 159.401 199.517 156.989 201.028 156.353C197.287 156.676 193.874 158.343 190.458 160.012C187.164 161.621 183.866 163.233 180.267 163.641C182.43 165.108 183.45 167.92 183.157 170.516C182.864 173.113 181.41 175.477 179.52 177.281C181.138 180.38 183.81 182.916 186.99 184.369C188.11 184.882 189.394 185.264 190.561 184.869C190.815 184.783 191.087 184.668 191.363 184.551C192.371 184.124 193.438 183.671 193.944 184.51C194.892 186.085 197.313 185.724 198.883 184.769C199.956 184.116 200.954 183.233 201.396 182.057C201.837 180.882 201.576 179.381 200.543 178.667C199.686 178.073 199.398 176.792 199.918 175.889C200.439 174.985 201.692 174.592 202.635 175.036C203.459 175.424 204.23 174.457 204.722 173.691C205.88 171.887 207.587 170.441 209.556 169.593C208.767 168.434 208.878 166.744 209.811 165.698C207.401 163.937 205.468 161.53 204.268 158.798C204.071 160.426 201.834 161.376 200.525 160.388ZM168.617 154.084C168.587 154.278 168.558 154.473 168.534 154.666C168.426 155.565 168.523 156.612 169.244 157.16C171.994 153.826 173.611 149.573 173.771 145.253C173.802 144.391 175.111 144.515 175.926 144.799C178.333 145.638 181.035 145.22 183.37 144.197C185.705 143.175 187.743 141.591 189.753 140.024C189.164 143.941 189.677 148.017 191.216 151.666L183.269 157.633C182.955 157.869 182.66 158.41 183.02 158.568C186.032 157.591 188.589 155.605 191.093 153.661L191.328 153.478C193.907 151.477 196.607 149.469 199.768 148.65C202.929 147.831 206.69 148.477 208.704 151.047C209.697 152.313 210.172 153.898 210.627 155.442L212.034 160.223C212.339 161.26 212.639 162.402 212.2 163.389C211.76 164.376 210.215 164.862 209.598 163.975L206.717 159.829C205.344 157.854 203.787 155.744 201.469 155.103C198.94 154.404 196.332 155.667 193.98 156.831C189.859 158.871 185.64 160.712 181.343 162.346C180.021 162.848 178.556 162.358 177.122 161.878C175.49 161.332 173.899 160.799 172.608 161.761C172.13 162.118 171.453 161.923 170.901 161.695C167.104 160.126 163.703 157.611 161.092 154.44L166.559 150.889C167.319 150.395 168.376 151.104 168.633 151.972C168.836 152.654 168.726 153.372 168.617 154.084ZM172.637 175.268C170.149 173.234 168.947 169.747 169.652 166.612C169.831 165.815 169.003 165.198 168.334 164.73C167.664 164.262 167.001 163.35 167.518 162.718C167.796 162.377 167.417 161.9 167.069 161.63L160.38 156.444C159.577 155.822 158.75 155.17 158.286 154.267C157.449 152.633 155.214 151.896 153.569 152.712C151.234 153.869 150.908 157.009 150.896 159.615C150.893 160.229 151.065 161.045 151.679 161.08C153.246 161.168 153.988 163.603 152.737 164.551C151.511 165.48 152.386 167.493 153.605 168.431C153.871 168.635 154.156 168.831 154.442 169.028C155.468 169.734 156.512 170.452 156.779 171.625C156.978 172.497 156.684 173.422 156.396 174.325C156.037 175.455 155.688 176.551 156.328 177.469C157.111 178.594 158.781 178.485 160.128 178.232C164.341 177.442 168.517 176.453 172.637 175.268ZM202.364 229.774C205.396 229.529 208.448 229.535 211.479 229.792C211.733 229.813 212.002 229.842 212.206 229.995C212.52 230.23 212.577 230.671 212.612 231.062C212.902 234.274 213.512 237.457 214.43 240.548C214.288 240.927 213.883 241.019 213.461 241.115C213.186 241.177 212.905 241.241 212.685 241.387C211.974 241.859 212.181 242.99 212.709 243.66C212.896 243.897 213.112 244.113 213.327 244.329L213.328 244.329L213.328 244.329L213.328 244.329L213.328 244.329L213.328 244.329L213.328 244.329C213.723 244.724 214.115 245.117 214.32 245.629C207.818 243.592 203.077 237.768 200.545 231.443C200.392 231.059 200.243 230.632 200.383 230.243C200.522 229.855 201.096 229.626 201.359 229.944C201.463 230.069 201.489 230.24 201.512 230.401L201.954 233.562C202.012 233.975 202.688 233.979 202.918 233.631C203.147 233.282 203.062 232.823 202.969 232.416L202.364 229.774ZM181.286 167.587C180.413 165.07 178.06 163.13 175.422 162.753C174.457 162.615 173.369 162.713 172.678 163.401C171.159 164.913 170.559 167.219 170.915 169.333C171.271 171.446 172.512 173.353 174.148 174.738C175.371 175.773 177.095 176.556 178.546 175.879C178.979 175.677 179.348 175.36 179.676 175.015C181.514 173.085 182.16 170.104 181.286 167.587ZM210.269 101.2C210.986 96.2082 211.653 90.8259 209.296 86.3674C209.132 86.0572 208.963 85.6488 209.198 85.3881L216.596 89.0536C217.183 89.3443 217.877 89.9069 217.604 90.5021C217.286 91.197 217.225 91.965 217.165 92.7341V92.7341C217.139 93.0591 217.114 93.3841 217.069 93.704C216.796 95.6376 215.791 97.4086 214.516 98.8881C213.242 100.367 211.7 101.589 210.169 102.8C210.116 102.267 210.193 101.73 210.269 101.2ZM217.718 244.555C216.869 243.36 215.734 242.19 214.276 242.044C213.713 241.988 212.956 242.559 213.365 242.95C216.897 246.327 219.263 251.16 218.825 256.027C218.388 260.895 214.716 265.54 209.886 266.282C211.315 267.978 214.04 268.11 215.977 267.028C217.913 265.946 219.158 263.932 219.944 261.857C222.087 256.195 221.224 249.49 217.718 244.555ZM141.899 188.487C147.258 189.326 152.486 190.833 157.698 192.336L171.901 196.431C176.223 197.678 180.595 198.945 184.493 201.19C182.644 201.123 180.846 200.595 179.077 200.054C175.948 199.098 172.83 198.088 169.711 197.077C159.594 193.8 149.47 190.521 138.958 189.061C139.63 188.258 140.864 188.324 141.899 188.487ZM219.551 94.1171C218.738 94.8478 218.349 95.9379 218.116 97.0061C218.047 97.3199 217.989 97.6367 217.931 97.9534L217.931 97.9535L217.931 97.9536C217.791 98.7153 217.651 99.4767 217.366 100.195C217.32 100.312 217.269 100.431 217.218 100.551C216.962 101.151 216.697 101.772 216.888 102.378C219.956 102.181 222.731 99.71 223.281 96.6857C223.465 95.6706 223.356 94.4784 222.552 93.8316C221.7 93.146 220.365 93.3864 219.551 94.1171ZM203.846 54.4127C204.199 55.4144 203.666 56.644 202.694 57.0715C201.721 57.499 200.455 57.0604 199.956 56.1231C199.406 55.0912 199.908 53.6409 200.978 53.1703C202.049 52.6996 203.457 53.3099 203.846 54.4127ZM167.329 55.3582C167.39 54.4474 166.818 53.5286 165.974 53.181C164.9 52.7386 163.519 53.3269 163.093 54.4081C162.668 55.4892 163.278 56.8608 164.366 57.2688C165.643 57.7478 167.239 56.7193 167.329 55.3582ZM208.878 64.5334C208.908 65.6857 209.965 66.7129 211.118 66.7097C212.341 66.7063 213.43 65.5306 213.341 64.3112C213.256 63.1615 212.152 62.1852 211.001 62.2425C209.849 62.2998 208.847 63.381 208.878 64.5334ZM176.017 65.8713C175.181 66.9159 173.357 66.9185 172.518 65.8764C171.679 64.8344 172.071 63.0525 173.27 62.4591C174.469 61.8656 176.124 62.6342 176.444 63.9331C176.608 64.5985 176.445 65.3363 176.017 65.8713ZM169.239 83.2816C168.532 84.3867 168.381 85.8292 168.844 87.0569C169.016 87.5121 169.271 87.9432 169.635 88.2666C170.801 89.304 172.795 88.8656 173.777 87.6521C174.758 86.4386 174.893 84.7263 174.604 83.1925C174.488 82.581 174.276 81.9282 173.754 81.5891C173.391 81.3531 172.934 81.3106 172.502 81.3415C171.193 81.4352 169.946 82.1765 169.239 83.2816ZM192.725 94.592C192.34 94.1981 192.085 93.6902 191.928 93.1621C191.342 91.2041 192.167 88.9105 193.864 87.7733C194.632 87.2589 195.623 86.9731 196.492 87.2879C197.557 87.6739 198.143 88.8365 198.345 89.9515C198.634 91.5474 198.286 93.3361 197.111 94.454C195.936 95.5719 193.86 95.7511 192.725 94.592ZM163.301 116.606C163.34 115.62 163.421 114.635 163.541 113.656C163.583 113.316 163.877 113.025 164.217 112.985C164.374 115.401 164.447 117.822 164.436 120.242C163.368 119.459 163.249 117.929 163.301 116.606ZM202.984 106.12C202.663 104.651 201.56 103.378 200.153 102.85C199.917 102.762 199.928 102.386 200.126 102.231C200.324 102.076 200.605 102.091 200.85 102.151C202.188 102.478 203.016 103.791 203.628 105.025C203.79 105.352 203.949 105.733 203.807 106.068C203.664 106.404 203.062 106.476 202.984 106.12ZM178.511 320.121C178.37 319.803 178.013 319.652 177.686 319.533C172.574 317.669 167.147 316.674 161.706 316.603C160.93 316.593 160.024 316.668 159.597 317.315C160.013 317.665 160.609 317.664 161.152 317.656C166.913 317.569 172.688 318.639 178.036 320.782C178.359 320.912 178.652 320.439 178.511 320.121ZM181.343 97.3716C181.035 97.625 180.696 97.8361 180.356 98.0471C179.973 98.2853 179.591 98.5233 179.254 98.822C178.619 99.3851 178.16 100.296 178.489 101.078C178.894 102.045 180.197 102.228 181.228 102.042L181.298 102.029L181.358 102.017C181.684 101.956 182.017 101.893 182.335 101.98C182.694 102.079 183.01 102.457 182.887 102.809C182.801 103.057 182.541 103.194 182.297 103.29C180.786 103.881 178.9 103.661 177.779 102.488C176.658 101.315 176.629 99.1666 177.91 98.1703L182.914 94.2776C182.863 95.4678 182.262 96.6142 181.343 97.3716ZM200.504 107.42C200.814 109.177 200.364 110.984 199.726 112.651C196.979 119.828 190.494 125.453 183 127.158C179.984 127.843 176.657 127.884 173.973 126.347C171.289 124.809 169.564 121.352 170.741 118.492C172.122 115.135 176.399 114.194 180.028 114.118C180.346 114.111 180.668 114.106 180.991 114.101C184.359 114.051 187.954 113.998 190.391 111.756C191.259 110.958 191.884 109.954 192.511 108.948L192.511 108.948C193.04 108.1 193.569 107.25 194.244 106.522C195.721 104.93 198.614 104.169 199.912 105.91C200.238 106.347 200.409 106.883 200.504 107.42ZM198.961 110.098C199.335 108.668 199.171 106.61 197.708 106.394C197.164 106.313 196.622 106.557 196.17 106.87C195.046 107.65 194.326 108.825 193.602 110.006C193.027 110.943 192.45 111.885 191.666 112.636C189.62 114.598 186.559 114.945 183.735 115.19L178.307 115.66C176.922 115.78 175.488 115.915 174.283 116.607C172.02 117.908 171.235 121.232 172.678 123.408C174.238 125.76 177.491 126.271 180.3 125.999C188.96 125.161 196.76 118.516 198.961 110.098ZM202.054 220.051C201.76 220.085 201.454 220.002 201.217 219.824C201.056 219.703 200.928 219.541 200.848 219.357C200.586 218.76 200.939 217.974 201.56 217.773C202.18 217.572 202.927 218.002 203.065 218.639C203.204 219.276 202.702 219.977 202.054 220.051ZM212.094 220.132C211.88 219.944 211.594 219.841 211.31 219.85C210.61 219.871 210.048 220.661 210.257 221.329C210.467 221.996 211.379 222.324 211.965 221.942C212.552 221.56 212.621 220.594 212.094 220.132ZM190.987 169.28C190.26 168.443 190.323 167.037 191.121 166.268C191.919 165.499 193.326 165.488 194.135 166.245C195 167.054 195.011 168.599 194.159 169.42C193.307 170.242 191.764 170.174 190.987 169.28ZM181.474 176.257C181.307 176.703 181.293 177.206 181.435 177.661C181.838 178.956 183.628 179.572 184.743 178.799C185.858 178.027 185.91 176.135 184.84 175.302C183.769 174.47 181.948 174.986 181.474 176.257ZM162.224 172.963C161.973 173.792 161.179 174.428 160.315 174.491C159.04 174.584 157.849 173.318 158.019 172.051C158.189 170.784 159.671 169.877 160.877 170.303C161.912 170.668 162.542 171.913 162.224 172.963Z" fill="#404040"/>
</g>
</svg>
