<svg width="382" height="382" viewBox="0 0 382 382" fill="none" xmlns="http://www.w3.org/2000/svg">
<mask id="mask0_116_384" style="mask-type:alpha" maskUnits="userSpaceOnUse" x="0" y="0" width="382" height="382">
<rect width="382" height="382" rx="16" fill="#C4C4C4"/>
</mask>
<g mask="url(#mask0_116_384)">
<path fill-rule="evenodd" clip-rule="evenodd" d="M213.669 311.883C249.585 311.883 281.102 285.167 263.402 248.88C245.702 212.594 311.47 213.766 330.789 188.687C354.349 158.102 347.526 28.2733 196.277 107.423C172.048 120.102 109.824 94.3794 89.1843 107.142C64.889 122.166 30.707 152.929 64.889 184.441C81.7265 199.963 21.3603 240.252 47.7995 276.34C73.5975 311.553 91.6814 277.985 130.959 285.167C170.236 292.349 186.996 311.883 213.669 311.883Z" fill="#5986F2"/>
<path d="M171.983 248.754C171.983 248.754 180.253 244.864 183.34 242.158C186.427 239.452 190.265 232.728 190.265 232.728C190.265 232.728 232.426 263.176 259.916 258.833C266.25 257.832 278.591 253.622 279.378 246.204C281.527 225.948 251.793 220.772 258.288 210.5C262.253 204.23 274.569 213.562 274.569 213.562L325.652 238.688C325.652 238.688 308.004 282.191 265.177 283.934C212.494 286.079 171.983 248.754 171.983 248.754Z" fill="#FCFCFC"/>
<path fill-rule="evenodd" clip-rule="evenodd" d="M131.482 78.3891C131.003 78.2009 128.428 75.0481 125.159 74.4743C123.674 74.2135 125.022 76.105 123.387 76.122C118.518 76.1727 110.606 75.2579 109.14 76.122C108.051 76.7621 110.45 78.9984 109.14 79.1011C96.7821 80.0697 77.9294 92.4086 73.8391 98.3947C72.5374 100.3 83.0654 97.0676 81.388 98.0094C79.5053 99.0665 77.4172 105.988 76.1688 111.334C75.3045 115.015 74.7603 119.753 74.5683 124.906C74.4082 129.356 74.4722 130.092 75.1125 132.525C75.8487 135.246 76.4249 136.046 77.4172 135.662C77.7694 135.534 77.9294 135.054 77.9294 134.158C77.9294 133.453 78.3135 131.341 78.7937 129.452L79.626 126.059L79.9781 127.467C80.4263 129.1 83.0511 134.158 85.4199 137.839C85.5477 138.034 86.0974 137.786 86.593 136.588C87.0447 135.496 86.8614 133.752 87.6287 131.883C89.3765 127.625 92.8084 122.089 96.7821 117.657C102.655 111.108 104.604 103.528 110.109 97.4442C120.383 86.0897 133.277 79.0937 131.482 78.3891Z" fill="#FCFCFC"/>
<path fill-rule="evenodd" clip-rule="evenodd" d="M81.5341 99.5542C79.886 100.879 77.4396 111.629 77.3977 111.809C76.5334 115.49 75.7002 128.274 76.5518 130.694C77.4034 133.114 79.7881 124.39 79.7881 124.39C79.7881 124.39 83.3924 133.749 86.5771 136.315C86.7132 136.424 82.7916 124.735 81.5341 117.912C79.8741 108.904 82.472 98.8 81.5341 99.5542Z" fill="#F5F5F5"/>
<path fill-rule="evenodd" clip-rule="evenodd" d="M142.962 287.817C146.035 287.145 151.221 284.804 153.206 284.003C155.191 283.203 161.241 274.66 163.417 265.025C164.986 257.919 165.786 247.803 164.89 246.107C164.757 245.866 164.273 241.266 165.562 242.768C168.427 246.107 171.828 251.348 182.559 241.956C185.482 239.398 189.356 236.097 188.336 233.178C185.482 225.012 173.111 208.569 171.225 207.324C168.97 205.835 157.572 207.1 140.61 202.094C121.373 196.416 113.363 179.697 105.836 181.873C99.7478 183.633 85.162 194.449 81.5014 201.299C64.2197 233.635 85.162 256.293 89.9313 262.801L94.562 264.801L94.7221 268.931L94.9461 271.523C95.3623 276.485 95.5223 276.933 97.7631 278.598C103.365 282.855 114.409 286.825 124.396 288.233C129.038 288.873 139.121 288.649 142.962 287.817Z" fill="#FCFCFC"/>
<path fill-rule="evenodd" clip-rule="evenodd" d="M96.3831 267.419L96.6072 270.012C97.0233 274.974 97.1834 275.422 99.4241 277.086C102.729 279.598 107.927 282.009 113.686 283.854C117.688 285.136 121.962 286.144 126.057 286.722C130.699 287.362 140.782 287.138 144.623 286.305C146.522 285.894 130.904 273.624 121.704 277.086C114.638 279.745 97.9844 259.464 104.755 254.166C112.351 248.222 98.4326 224.779 97.9844 219.69C97.5363 214.601 95.7714 213.385 95.7199 213.563C95.6684 213.742 95.6684 214.35 95.8069 215.818C96.4041 222.142 96.3831 267.419 96.3831 267.419Z" fill="#F5F5F5"/>
<path fill-rule="evenodd" clip-rule="evenodd" d="M94.7157 218.237C95.3877 218.106 96.0386 218.545 96.1694 219.217C98.5853 231.629 108.805 240.032 127.078 244.426C145.46 248.846 157.981 248.608 164.578 243.89C165.135 243.491 164.72 246.902 164.312 247.164C160.009 249.923 145.379 254.04 127.921 250.319C105.599 245.561 95.1178 226.791 93.7357 219.691C93.6049 219.019 94.0437 218.368 94.7157 218.237Z" fill="#FF9A9A"/>
<path fill-rule="evenodd" clip-rule="evenodd" d="M85.4069 195.843C86.0012 195.503 108.172 220.913 138.599 226.664C169.025 232.416 176.392 228.758 177.576 220.913C177.678 220.236 178.31 219.77 178.987 219.872C179.664 219.974 180.13 220.606 180.027 221.283C178.527 231.226 164.448 233.591 138.182 229.108C112.245 224.683 94.4633 214.167 84.9466 197.534C84.6066 196.94 84.8127 196.183 85.4069 195.843Z" fill="#FF9A9A"/>
<path fill-rule="evenodd" clip-rule="evenodd" d="M213.111 194.434C212.279 194.146 211.383 193.505 210.807 192.769L209.846 191.585L213.239 188.224C218.457 183.102 222.458 177.852 225.916 171.61C227.068 169.529 229.981 162.583 229.981 161.911C229.981 161.687 230.333 160.79 230.749 159.862C231.39 158.518 231.87 158.006 233.246 157.237C234.879 156.277 236.735 155.957 237.536 156.501C239.072 157.525 239.072 160.758 237.536 166.328C235.839 172.442 233.566 176.828 228.861 183.134C228.124 184.094 226.748 185.983 225.756 187.295C223.099 190.817 221.37 192.513 219.033 193.826C216.729 195.106 215.384 195.266 213.111 194.434ZM236.095 191.553L238.4 192.577C238.878 192.798 244.15 195.331 250.483 198.374C260.693 203.28 273.661 209.511 273.74 209.511C273.868 209.511 274.469 208.122 274.604 206.502C274.924 203.013 276.109 198.275 277.485 194.978C278.125 193.505 278.637 191.665 278.637 191.505C278.637 191.432 278.117 191.222 277.265 190.878C276.251 190.469 274.767 189.871 273.132 189.088C265.065 185.215 249.284 177.308 247.331 176.124C245.41 175.003 245.026 174.907 245.026 175.643C245.026 176.604 243.073 181.053 241.569 183.454C240.769 184.767 239.2 187.135 238.08 188.704L236.095 191.553ZM273.196 203.749C274.113 204.281 272.523 205.061 272.139 205.189C269.877 205.382 267.215 204.956 265.033 203.685C263.892 202.876 254.91 197.886 248.951 194.576C246.227 193.062 244.135 191.9 243.714 191.649C242.369 190.849 241.089 189.984 240.865 189.728C240.192 188.864 240.833 188.48 242.721 188.64C243.857 188.736 271.213 202.6 273.196 203.749ZM151.815 284.366L151.815 284.366C152.412 284.114 152.925 283.897 153.315 283.74C155.301 282.939 161.35 274.397 163.527 264.762C165.095 257.655 165.896 247.54 164.999 245.843C164.459 244.861 167.669 248.156 170.06 250.611L170.06 250.612L170.061 250.612L170.066 250.617L170.068 250.619L170.071 250.623L170.072 250.623L170.076 250.627C170.794 251.365 171.438 252.026 171.882 252.469C185.838 266.33 206.613 277.47 228.189 282.688C238.944 285.313 246.595 286.241 256.87 286.241C274.124 286.241 287.729 282.848 300.085 275.389C300.672 275.035 301.222 274.709 301.746 274.399L301.746 274.399C306.053 271.849 308.619 270.33 315.642 262.425C323.52 253.558 330.527 232.975 332.864 225.868C333.888 222.667 336.385 209.935 336.385 206.758C336.385 202.996 335.073 201.22 333.28 199.396C330.111 196.29 325.822 195.17 322.268 196.515L320.604 197.155L320.092 195.458C319.355 192.897 317.819 190.849 315.45 189.312C311.929 186.975 311.417 186.815 308.248 186.815C305.783 186.815 305.111 186.943 303.542 187.68L301.717 188.512L301.333 187.359C300.597 184.991 298.128 181.688 296.212 180.733C294.512 179.886 291.571 179.808 289.521 180.189C285.04 181.021 281.839 183.102 280.526 186.015C280.142 186.911 279.662 187.616 279.47 187.616C279.31 187.616 273.004 185.854 265.481 182.525C264.226 181.968 263.046 181.445 261.936 180.953L261.901 180.937C248.392 174.95 245.464 173.652 245.731 172.026C245.955 170.65 245.891 169.882 245.506 168.697C244.834 166.712 244.066 166.168 241.889 166.168C240.161 166.168 240.161 166.168 240.353 165.304C241.377 160.406 241.345 157.589 240.257 155.797C239.52 154.612 238.656 154.132 236.671 153.844C235.519 153.684 234.975 153.78 233.694 154.484C232.83 154.933 232.094 155.253 232.03 155.189C231.966 155.125 232.19 153.364 232.542 151.283C235.167 135.886 233.139 122.62 226.449 108.535C226.385 108.4 226.311 108.241 226.226 108.059C224.192 103.692 216.014 86.1339 192.625 77.2743C191.566 76.8733 190.564 76.4855 189.601 76.1129C181.634 73.029 176.338 70.9789 163.559 71.0002C149.235 71.024 144.384 73.0489 134.941 77.3703C133.629 77.9785 132.476 78.3306 132.38 78.2026C132.284 78.0425 131.676 77.6584 131.068 77.3383C130.46 77.0182 129.147 76.2179 128.187 75.5777C125.434 73.7211 123.737 72.9528 122.873 73.1449C121.881 73.401 121.881 74.2333 122.873 74.6174C123.289 74.7774 123.769 75.3216 123.961 75.8658C124.378 77.0182 124.858 77.1462 125.146 76.1859C125.274 75.8338 125.466 75.5777 125.562 75.6417C125.598 75.6599 125.719 75.7165 125.904 75.803L125.904 75.8032L125.906 75.804L125.906 75.8041C126.374 76.0231 127.248 76.4321 128.187 76.8902C129.499 77.5304 130.94 78.2026 131.324 78.3626C132.028 78.6187 131.804 78.8108 128.763 80.6034C116.887 87.5818 107.22 98.4334 101.81 110.79C100.978 112.646 100.241 113.799 99.4732 114.439C97.5205 116.071 93.6792 120.713 92.7829 122.538C92.3027 123.53 91.2784 125.066 90.4781 125.963C89.7099 126.859 88.8776 128.011 88.5895 128.492C88.3334 129.004 88.0773 129.356 87.9813 129.292C87.9173 129.196 88.0133 127.627 88.2374 125.803C88.7175 121.545 88.7175 120.425 88.3334 120.329C87.7572 120.169 86.9249 122.41 86.5728 125.194C86.3167 126.891 86.2527 129.452 86.4128 132.077L86.6048 136.238L84.3321 132.557C83.5492 131.324 82.7783 130.091 82.2315 129.216C81.884 128.661 81.6271 128.25 81.5151 128.075C80.6828 126.859 80.2027 125.034 80.5548 124.426C80.7468 124.074 80.7148 123.914 80.3947 123.914C79.7225 123.914 78.4101 126.059 77.5458 128.524C77.1296 129.676 76.7135 130.636 76.5854 130.636C76.1053 130.636 76.3294 119.176 76.8415 115.495C77.8979 108.229 80.6828 99.2657 81.9312 99.2657C82.1873 99.2657 82.4114 99.1377 82.4114 98.9456C82.4114 98.3694 81.5791 98.5935 80.9069 99.3297C79.4024 100.962 77.4177 105.988 76.1693 111.334C75.305 115.015 74.7608 119.753 74.5688 124.906C74.4087 129.356 74.4727 130.092 75.1129 132.525C75.8492 135.246 76.4254 136.046 77.4177 135.662C77.7698 135.534 77.9299 135.054 77.9299 134.157C77.9299 133.453 78.314 131.341 78.7942 129.452L79.6265 126.059L79.9786 127.467C80.4267 129.1 83.0516 134.157 85.4204 137.839C87.053 140.336 87.085 140.496 87.6292 144.401C87.9173 146.61 88.8136 151.982 90.8943 160.246C92.7327 167.548 103.068 174.792 105.648 176.6C105.989 176.839 106.194 176.983 106.227 177.02C106.548 177.372 106.996 177.564 107.252 177.468C107.54 177.372 107.7 177.5 107.7 177.852C107.7 178.172 107.924 178.588 108.18 178.781C108.5 179.005 108.724 179.869 108.788 181.373C108.948 184.382 111.189 190.144 112.918 192.033C114.038 193.249 116.375 193.762 118.968 193.313C120.664 193.057 121.144 192.865 120.984 192.481C120.888 192.225 121.497 192.545 122.329 193.185C132.06 200.612 141.919 205.061 152.995 206.982C157.285 207.718 164.391 208.134 168.264 207.846C170.748 207.684 171.431 207.639 171.557 207.883C171.605 207.976 171.573 208.11 171.529 208.295C171.305 209.191 171.594 209.735 176.299 217.706C180.044 224.012 180.364 224.428 184.526 228.685C193.361 237.808 202.996 244.883 213.912 250.357C224.187 255.478 240.593 259.736 255.59 261.08C270.587 262.425 281.359 248.66 281.327 245.139C281.263 240.305 280.59 237.136 278.958 234.063C277.357 231.086 276.301 230.062 271.499 226.861C266.153 223.308 262.856 220.395 260.68 217.29C259.303 215.337 258.791 213.128 258.791 211.944C258.791 211.175 259.783 209.447 261.256 209.095C262.6 208.743 262.856 208.775 264.361 209.511C265.257 209.927 267.594 211.015 269.515 211.944C271.467 212.84 273.356 213.736 273.74 213.928C274.872 214.243 275.351 216.46 275.611 217.661C275.669 217.93 275.716 218.147 275.757 218.282C276.205 219.946 278.326 222.096 279.694 222.827C282.097 224.112 288.017 224.284 289.65 222.524C290.066 222.075 291.446 221.524 291.73 221.691C292.014 221.858 293.043 223.244 293.043 224.364C293.075 226.285 294.067 228.045 296.18 229.806C300.181 233.135 303.286 233.935 306.423 232.463C308.056 231.694 309.394 231.394 309.394 231.394C309.394 231.394 310.728 233.097 310.809 233.679C311.437 238.227 318.171 240.134 319.963 240.326C320.374 240.367 321.174 240.191 321.986 240.013L321.986 240.013C323.072 239.774 324.18 239.53 324.413 239.793C324.87 240.309 316.763 253.718 315.642 255.414C304.983 271.42 284.24 281.215 258.855 282.239C242.369 282.912 222.107 278.302 204.533 269.915C193.297 264.505 183.341 257.879 172.682 248.596C170.825 246.996 168.681 245.171 167.912 244.531C167.144 243.923 165.319 241.842 163.911 239.921C161.542 236.72 160.198 235.568 160.198 236.656C160.198 237.136 161.734 240.081 163.495 242.994C164.199 244.147 164.647 244.947 164.487 244.819C164.327 244.691 163.815 246.996 163.335 249.941C161.766 259.384 159.173 268.699 156.548 274.493C155.108 277.63 152.346 279.973 151.514 280.613C148.441 282.95 143.84 284 137.47 284.64C129.403 285.441 117.527 283.648 108.468 280.255C106.067 279.359 99.8893 276.766 99.4732 276.478C99.4482 276.453 99.3064 275.532 99.1085 274.247L99.1084 274.247C99.0526 273.884 98.9924 273.493 98.929 273.084C97.7766 265.178 96.1761 234.735 96.1761 220.651C96.1761 214.825 96.112 213.544 95.7279 213.544C94.9276 213.544 94.6075 214.313 94.2554 217.065C93.4551 223.34 93.6152 256.087 94.4795 262.969L94.6715 264.538L93.5832 263.929C91.9186 262.969 85.5805 256.535 83.3717 253.558C81.5019 251.013 80.3905 247.753 79.559 245.315C79.3656 244.747 79.1874 244.225 79.0183 243.766C74.3767 230.897 76.0092 216.457 82.4114 203.461C87.8532 192.385 94.5435 186.239 104.339 183.262C105.939 182.782 107.348 182.27 107.508 182.142C108.116 181.565 104.211 181.854 102.066 182.526C95.0877 184.671 87.7892 190.529 82.8275 198.019C75.8492 208.519 72.7121 224.012 74.9209 237.232C75.4331 240.369 77.5138 247.156 78.0899 247.636C78.141 247.687 78.4042 248.239 78.8024 249.074C79.9034 251.384 82.0357 255.858 83.5638 257.879C85.4204 260.408 91.0223 265.914 93.3591 267.611L94.8316 268.667L95.0557 271.26C95.4718 276.221 95.6319 276.67 97.8726 278.334C103.475 282.592 114.518 286.561 124.506 287.969C129.147 288.61 139.231 288.386 143.072 287.553C145.541 287.013 149.374 285.396 151.815 284.366ZM251.268 257.495C232.67 255.863 210.199 246.995 193.937 233.294C187.087 227.5 178.188 216.233 174.667 209.991C173.93 208.711 173.386 208.102 172.746 207.942C172.074 207.75 172.65 207.558 175.403 207.11C187.023 205.125 198.323 200.292 207.446 193.409L208.79 192.417L209.174 193.345C210.038 195.426 213.368 197.539 215.832 197.539C216.825 197.539 220.154 196.034 222.171 194.658L223.547 193.73L224.667 194.85C225.692 195.874 225.884 195.938 227.804 195.938C230.013 195.938 232.67 194.946 234.143 193.537L234.943 192.801L237.216 194.306C238.432 195.17 241.825 197.059 244.738 198.563C249.092 200.804 253.701 203.397 258.087 206.086L258.791 206.534L258.119 207.43C257.414 208.391 256.103 210.215 256.103 213C256.103 216.137 259.365 221.773 265.609 225.644C270.515 228.685 278.958 234.667 278.638 243.41C278.599 244.466 277.421 247.092 275.853 249.46C274.828 250.965 271.979 253.206 269.387 254.518C264.969 256.727 257.19 258.007 251.268 257.495ZM80.5868 113.799C81.4511 113.991 82.0273 114.279 81.8992 114.407C81.4831 114.823 79.2744 114.631 78.7622 114.119C77.9619 113.35 78.154 112.806 79.2744 112.582C79.8506 112.486 80.7148 112.006 81.195 111.526C81.6752 111.046 82.0913 110.822 82.0913 110.982C82.0913 111.398 80.4908 112.87 79.6905 113.19C79.1783 113.414 79.3384 113.51 80.5868 113.799ZM93.3271 114.311C94.2554 113.799 94.0634 113.446 92.975 113.607C91.8866 113.767 91.8226 113.639 92.5268 112.55C92.8149 112.134 92.975 111.526 92.911 111.206C92.8149 110.79 92.5909 110.982 92.0787 112.006C91.6946 112.742 91.1504 113.35 90.8943 113.35C90.094 113.35 90.03 113.991 90.7983 114.279C91.7906 114.695 92.5588 114.695 93.3271 114.311ZM82.2514 96.8328C81.4831 96.9609 79.0823 97.9212 76.9696 98.9775C74.8248 100.002 73.0002 100.866 72.8722 100.834C69.6071 100.482 74.1526 95.0402 82.4114 89.4703C90.3181 84.1245 95.6639 81.3076 100.626 79.8671C103.731 78.9708 107.22 78.8427 108.212 79.579C108.756 79.9951 108.564 80.0271 106.195 80.0591C101.074 80.0591 95.1517 82.684 85.5165 89.1182C80.5228 92.4473 74.7288 97.2169 74.7288 97.9852C74.7288 98.1453 75.6571 97.8251 76.8095 97.313C79.2743 96.1926 81.8032 95.6164 82.9236 95.8725C84.108 96.1926 83.8519 96.6087 82.2514 96.8328ZM94.6395 99.5857C97.6485 98.9775 97.7766 98.9455 97.7766 98.6254C97.7766 98.4653 96.6242 98.3053 95.1837 98.2413L92.5908 98.1452L94.9916 95.4243C96.3041 93.9198 97.8406 92.4153 98.3848 92.0632C99.5692 91.2949 99.6332 90.7507 98.6729 90.4306L97.9366 90.2066L98.7369 89.9185C99.1851 89.7584 100.017 89.6944 100.594 89.7904C101.458 89.9185 101.65 89.8544 101.554 89.4063C101.458 88.9581 101.106 88.8621 99.5372 88.8941C94.9596 88.9581 93.007 90.1745 96.5922 90.7507C97.5845 90.9108 98.4168 91.1669 98.4168 91.3269C98.4168 91.455 98.2567 91.583 98.0647 91.583C97.4565 91.583 92.3027 96.8008 91.6625 98.0812C90.6702 99.9698 91.2144 100.258 94.6395 99.5857ZM115.767 87.1656C114.838 87.2296 114.614 87.3897 114.678 87.8379L114.688 87.9031C114.724 88.1398 114.745 88.2759 114.692 88.3172C114.62 88.3729 114.414 88.2561 113.93 87.9815L113.93 87.9815L113.846 87.9339C113.238 87.6138 113.174 87.4537 113.526 87.1976C113.75 87.0056 114.358 86.7175 114.838 86.6214L115.735 86.3974L115.062 85.6931C114.71 85.277 114.518 84.8929 114.614 84.7648C114.87 84.5087 118.007 84.8608 118.456 85.213C118.648 85.373 118.936 85.341 119.128 85.1489C119.576 84.7008 120.184 85.0529 120.184 85.7571C120.184 86.1413 120.088 86.1733 119.8 85.8852C119.544 85.6291 119.32 85.6291 119.032 85.8532C118.776 86.0773 118.584 86.0773 118.424 85.8212C118.328 85.6611 117.719 85.5011 117.079 85.5011C116.489 85.5011 116.209 85.5011 116.152 85.6136C116.101 85.7146 116.229 85.9061 116.471 86.2693C116.982 87.0671 116.951 87.0696 115.778 87.1647L115.767 87.1656ZM110.901 78.6508C110.901 78.2346 110.517 77.4984 110.037 77.0182L109.14 76.1219L113.942 76.314C116.599 76.442 119.608 76.7301 120.664 77.0182C121.721 77.2743 122.937 77.4664 123.385 77.4664C124.057 77.4664 123.929 77.3383 122.681 76.6661C120.504 75.5457 117.719 75.0015 112.374 74.6174C105.971 74.1692 102.738 74.7774 103.346 76.378C103.443 76.6981 103.955 76.8581 104.723 76.8581C106.291 76.8581 108.852 77.7865 109.717 78.6508C110.645 79.5791 110.901 79.5791 110.901 78.6508ZM95.2796 163.415C97.8725 166.744 101.298 170.522 102.898 171.802C103.859 172.57 104.691 173.211 104.755 173.211C104.787 173.211 104.083 171.738 103.186 169.946C99.5691 162.743 97.4563 155.573 96.464 147.314C96.2399 145.489 95.8878 143.953 95.5037 143.313C94.7354 142.032 94.7354 140.368 95.5357 138.799C95.9518 137.967 96.1759 136.91 96.1759 135.758V133.997L94.6394 135.598C93.1349 137.166 91.6944 137.807 91.6944 136.846C91.6944 136.142 94.0632 132.749 95.3116 131.693C96.304 130.86 96.432 130.572 96.7521 128.075C96.9762 126.571 97.4884 123.914 97.9045 122.153C98.3527 120.393 98.6087 118.888 98.5447 118.824C98.3206 118.6 90.7981 127.24 89.7738 129.996C89.5489 130.601 88.9415 131.661 88.4613 132.301L87.629 133.369C87.629 133.369 87.8876 134.866 88.1732 136.746C88.4618 138.646 88.5972 139.952 88.7178 141.116C88.8792 142.672 89.014 143.973 89.4536 146.097C89.9658 148.722 90.478 150.995 90.606 151.155C90.7021 151.347 91.1182 152.82 91.5343 154.452C92.4307 158.069 93.9352 161.655 95.2796 163.415ZM225.179 193.698L224.507 193.025C224.507 193.025 235.664 178.85 237.664 173.627C239.189 169.641 240.087 168.51 241.299 168.51C241.976 168.51 242.529 168.665 242.785 169.049C243.234 169.721 243.665 170.554 243.089 173.403C242.129 178.012 240.656 181.053 236.239 187.616C235.215 189.12 233.902 190.785 233.326 191.361C231.981 192.609 228.957 193.89 227.196 194.178C226.076 194.338 225.756 194.274 225.179 193.698Z" fill="#404040"/>
<path d="M313.817 225.012C317.8 214.162 317.197 211.85 316.506 211.624C316.506 211.624 314.985 212.488 314.313 214.313C313.065 217.738 308.791 226.701 307.191 228.301C305.302 230.19 305.302 230.19 303.382 230.19C301.461 230.19 295.922 227.297 295.168 224.446C293.961 219.885 299.156 204.037 299.284 203.141L298.42 202.533C297.844 203.077 290.349 225.804 280.494 219.882C279.365 219.204 276.973 216.009 276.781 214.313C275.714 209.383 280.608 192.145 281.44 188.604C282.185 185.435 286.064 182.494 290.833 182.494C298.164 182.494 297.179 188.902 300.463 191.159C301.918 192.16 304.309 190.346 305.046 190.208C309.176 189.44 310.758 190.335 313.785 192.737C316.122 194.592 317.851 198.262 319.754 199.556C320.811 200.274 321.933 199.292 322.3 199.107C323.806 198.351 327.038 198.915 327.934 199.556C329.248 200.128 332.468 203.224 332.976 205.024C335.282 213.183 328.002 231.271 325.254 234.664C320.704 240.281 309.835 235.863 313.817 225.012Z" fill="#FCFCFC"/>
<path fill-rule="evenodd" clip-rule="evenodd" d="M129.787 195.281C138.558 200.818 147.602 204.436 157.909 205.428C166.04 206.196 177.003 205.14 184.878 202.579C191.504 200.434 200.467 194.493 206.453 189.467C218.073 179.736 225.403 164.536 228.604 148.402C229.052 146.129 229.736 140.416 229.704 134.751C229.704 128.156 226.802 110.136 218.009 99.7458C199.873 78.3158 170.062 68.6621 145.007 76.9105C135.969 79.886 126.347 85.2769 119.08 92.3193C109.925 101.25 103.171 113.414 100.482 125.835C97.665 138.959 101.329 154.644 107.7 167.513C112.789 177.756 121.176 189.807 129.787 195.281ZM215.256 156.597C209.238 174.683 193.552 188.192 173.834 192.289C170.825 192.897 168.744 193.121 164.519 193.185C161.542 193.281 158.565 193.249 157.956 193.185C144.16 191.521 133.66 186.431 123.993 176.764C119.768 172.506 117.975 170.202 115.35 165.656C111.221 158.454 109.012 151.091 108.34 142.224C106.035 111.846 127.77 86.5254 158.373 83.9005C170.377 82.8762 183.693 86.5574 193.809 93.7278C197.554 96.3847 204.34 103.107 206.453 106.244C207.317 107.492 215.704 119.753 217.176 126.795C219.065 135.95 218.329 147.41 215.256 156.597Z" fill="#FCFCFC"/>
<path fill-rule="evenodd" clip-rule="evenodd" d="M229.716 134.751C229.716 156.237 219.552 179.726 206.435 189.758C200.177 194.545 191.999 200.34 184.878 202.579C174.441 205.86 157.909 205.428 157.909 205.428C157.909 205.428 174.775 203.173 181.025 200.658C198.947 193.446 208.731 182.374 214.772 171.75C226.697 150.781 229.716 134.229 229.716 134.751Z" fill="#F5F5F5"/>
<path fill-rule="evenodd" clip-rule="evenodd" d="M158.277 189.344C149.73 188.256 141.247 185.215 134.397 180.701C130.331 178.044 124.185 171.802 121.208 167.353C116.951 160.951 114.134 154.1 112.757 146.738C111.765 141.392 111.797 133.165 112.789 128.396C113.814 123.53 115.126 119.817 117.463 115.111C120.184 109.669 123.065 105.668 127.386 101.346C134.749 93.9839 143.296 89.3103 153.475 87.0696C156.772 86.3653 168.712 85.7891 169.128 86.3333C169.224 86.4934 169.865 86.9095 170.537 87.2616C171.209 87.6458 173.002 88.9902 174.474 90.3027C176.683 92.2233 177.675 93.4397 179.596 96.4487C180.908 98.4974 181.965 100.354 181.965 100.514C181.965 100.866 182.989 101.506 183.565 101.506C184.365 101.506 184.91 99.1056 185.07 94.8802C185.166 92.5434 185.358 90.6228 185.486 90.6228C185.934 90.6228 190.864 93.3437 193.168 94.8802C197.682 97.8892 202.195 102.115 205.525 106.532C207.029 108.517 207.253 109.029 207.253 110.245C207.253 111.366 207.573 112.23 208.566 113.959C211.062 118.312 213.015 123.786 214.199 129.836C214.968 133.901 214.968 141.584 214.167 145.841C211.991 157.557 205.525 169.209 197.106 176.604C189.967 182.846 182.381 186.687 173.418 188.576C170.345 189.248 161.126 189.696 158.277 189.344ZM135.389 167.449C135.677 167.129 135.869 166.648 135.773 166.424C135.744 166.357 135.343 166.169 134.757 165.893C133.389 165.25 131.011 164.132 129.981 162.967C125.883 158.294 124.379 154.804 123.451 147.602C122.554 140.592 123.307 135.852 124.923 128.235C125.711 124.52 127.806 121.451 129.11 119.541C129.996 118.243 130.516 117.481 130.011 117.416C128.763 117.224 128.571 117.32 127.258 118.568C124.441 121.257 123.161 123.402 121.816 127.531C119.736 133.997 119.334 151.472 123.451 159.35C127.568 167.228 134.653 168.281 135.389 167.449ZM180.908 140.56C180.365 145.532 178.059 152.724 175.37 155.861C174.122 157.333 169.539 159.862 165.671 159.35C161.935 158.855 159.013 157.109 156.516 153.364C154.371 150.131 153.264 146.206 152.515 141.264C151.221 132.729 156.868 122.794 159.301 120.329C161.766 117.8 163.526 116.904 165.767 116.872C167.944 116.872 169.352 117.352 171.561 118.92C175.594 121.737 181.965 130.897 180.908 140.56ZM137.758 114.087C138.398 113.35 138.494 112.998 138.302 111.622C138.174 110.341 137.918 109.829 137.246 109.285C136.061 108.325 134.589 108.325 133.5 109.349C132.732 110.085 132.636 110.341 132.732 112.102C132.828 113.991 132.892 114.119 133.948 114.695C135.357 115.463 136.733 115.239 137.758 114.087ZM157.732 94.336C151.971 98.4654 149.474 100.162 146.881 101.763C144.832 103.043 144.192 103.075 144.192 101.923C144.192 101.314 144.64 100.642 145.792 99.5858L147.393 98.1133L144.288 97.6971C140.799 97.249 137.406 96.2887 136.669 95.5524C135.453 94.304 136.509 94.0159 139.966 94.6561C141.503 94.9122 144.48 95.2323 146.593 95.2963L150.434 95.4564L153.219 93.4397C159.333 89.0222 165.671 86.5254 168.712 87.2936C170.601 87.7418 170.377 88.2539 168.232 88.51C165.767 88.7981 164.263 89.6304 157.732 94.336Z" fill="#FCFCFC"/>
<path d="M165.959 154.965C165.959 154.804 166.151 154.644 166.407 154.644C166.663 154.644 166.984 154.804 167.08 154.965C167.176 155.157 166.984 155.285 166.631 155.285C166.247 155.285 165.959 155.157 165.959 154.965Z" fill="#FCFCFC"/>
<path d="M167.88 154.676C167.88 154.324 168.68 154.004 169.576 154.004C170.281 154.036 170.281 154.036 169.672 154.484C168.968 155.028 167.88 155.125 167.88 154.676Z" fill="#FCFCFC"/>
<path d="M162.918 153.844C162.822 153.588 162.694 153.14 162.598 152.884C162.502 152.564 162.662 152.404 163.078 152.404C163.43 152.404 163.718 152.596 163.718 152.852C163.718 153.108 163.814 153.524 163.91 153.812C164.039 154.164 163.943 154.324 163.59 154.324C163.302 154.324 162.982 154.1 162.918 153.844Z" fill="#FCFCFC"/>
<path d="M164.615 153.044C164.455 152.084 164.807 151.763 165.959 151.763C166.311 151.763 166.6 152.084 166.728 152.628C166.984 153.556 166.568 154.004 165.447 154.004C164.935 154.004 164.711 153.78 164.615 153.044Z" fill="#FCFCFC"/>
<path d="M161.35 153.204C160.742 152.724 160.742 152.724 161.414 152.724C161.83 152.724 162.118 152.916 162.118 153.204C162.118 153.78 162.118 153.78 161.35 153.204Z" fill="#FCFCFC"/>
<path d="M167.784 153.172C167.368 152.756 167.56 151.507 168.072 151.315C169 150.963 169.416 151.123 169.609 151.956C169.737 152.436 169.801 152.852 169.737 152.884C169.48 153.172 167.976 153.364 167.784 153.172Z" fill="#FCFCFC"/>
<path d="M170.633 152.5C170.537 152.404 170.441 151.987 170.441 151.603C170.441 151.059 170.697 150.835 171.465 150.675C172.137 150.547 172.553 150.611 172.745 150.867C173.066 151.379 173.066 152.019 172.777 152.179C172.201 152.5 170.857 152.692 170.633 152.5Z" fill="#FCFCFC"/>
<path d="M159.877 151.507C159.877 151.123 160.165 150.803 160.581 150.707C161.414 150.483 161.382 150.451 161.542 151.283C161.606 151.763 161.446 151.956 160.773 152.02C160.069 152.116 159.877 151.988 159.877 151.507Z" fill="#FCFCFC"/>
<path d="M162.31 151.539C161.862 151.059 162.15 150.163 162.758 150.163C163.174 150.163 163.398 150.387 163.398 150.771C163.398 151.379 162.662 151.891 162.31 151.539Z" fill="#FCFCFC"/>
<path d="M164.231 150.579C163.975 149.971 164.519 149.523 165.575 149.523C166.055 149.523 166.279 149.715 166.279 150.131C166.279 150.483 165.991 150.803 165.575 150.931C164.519 151.187 164.455 151.187 164.231 150.579Z" fill="#FCFCFC"/>
<path d="M173.482 150.483C173.578 150.323 173.738 150.163 173.834 150.163C173.93 150.163 173.898 150.323 173.802 150.483C173.706 150.675 173.546 150.803 173.45 150.803C173.354 150.803 173.386 150.675 173.482 150.483Z" fill="#FCFCFC"/>
<path d="M167.112 149.939C166.856 149.298 167.176 148.978 168.2 148.818C168.776 148.754 169.032 148.882 169.096 149.33C169.32 150.387 167.496 150.963 167.112 149.939Z" fill="#FCFCFC"/>
<path d="M159.429 149.395C159.141 148.338 159.205 148.242 160.037 148.242C160.485 148.242 160.838 148.37 160.838 148.53C160.838 148.69 160.934 149.043 161.03 149.299C161.126 149.619 160.934 149.811 160.389 149.907C159.781 150.035 159.557 149.907 159.429 149.395Z" fill="#FCFCFC"/>
<path d="M170.121 149.043C170.121 148.466 170.345 148.21 170.953 148.05C171.849 147.826 172.361 148.274 172.361 149.299C172.361 149.715 172.105 149.843 171.241 149.843C170.249 149.843 170.121 149.747 170.121 149.043Z" fill="#FCFCFC"/>
<path d="M158.469 149.043C158.373 148.786 158.437 148.562 158.597 148.562C158.789 148.562 158.917 148.786 158.917 149.043C158.917 149.299 158.853 149.523 158.789 149.523C158.725 149.523 158.597 149.299 158.469 149.043Z" fill="#FCFCFC"/>
<path d="M161.702 149.299C161.254 148.882 161.51 147.986 162.086 147.826C162.438 147.73 162.79 147.762 162.886 147.858C163.27 148.21 163.046 149.138 162.566 149.331C161.958 149.555 161.958 149.555 161.702 149.299Z" fill="#FCFCFC"/>
<path d="M173.13 149.075C172.778 148.146 173.162 147.442 174.058 147.346C174.73 147.25 174.922 147.378 174.922 147.89C174.922 148.947 174.57 149.523 173.93 149.523C173.578 149.523 173.226 149.331 173.13 149.075Z" fill="#FCFCFC"/>
<path d="M163.943 148.658C163.558 148.306 163.687 147.666 164.231 147.474C164.839 147.25 166.119 147.89 165.767 148.242C165.319 148.626 164.167 148.914 163.943 148.658Z" fill="#FCFCFC"/>
<path d="M166.728 147.858C166.44 147.41 167.464 146.642 168.296 146.642C168.68 146.642 168.84 146.834 168.776 147.186C168.648 147.826 167.016 148.338 166.728 147.858Z" fill="#FCFCFC"/>
<path d="M157.957 147.634C157.957 147.474 157.861 147.122 157.765 146.834C157.669 146.546 157.701 146.322 157.893 146.322C158.309 146.322 158.629 147.538 158.245 147.794C158.085 147.89 157.957 147.826 157.957 147.634Z" fill="#FCFCFC"/>
<path d="M158.821 146.898C158.629 146.193 159.013 145.681 159.749 145.681C160.165 145.681 160.581 146.93 160.325 147.346C159.973 147.89 158.981 147.57 158.821 146.898Z" fill="#FCFCFC"/>
<path d="M161.062 147.058C160.582 146.578 160.87 145.425 161.51 145.265C161.99 145.137 162.246 145.297 162.502 145.873C162.694 146.29 162.79 146.706 162.726 146.77C162.406 147.058 161.254 147.282 161.062 147.058Z" fill="#FCFCFC"/>
<path d="M169.705 147.058C169.288 146.642 169.481 146.386 170.441 146.034C171.241 145.777 171.465 145.809 171.625 146.194C171.913 146.962 170.313 147.698 169.705 147.058Z" fill="#FCFCFC"/>
<path d="M172.522 146.322C172.201 145.809 172.65 145.361 173.482 145.361C174.474 145.361 174.762 146.193 173.866 146.45C172.906 146.706 172.746 146.674 172.522 146.322Z" fill="#FCFCFC"/>
<path d="M175.242 145.553C175.242 145.073 175.819 144.561 176.075 144.817C176.299 145.041 175.851 146.001 175.531 146.001C175.37 146.001 175.242 145.809 175.242 145.553Z" fill="#FCFCFC"/>
<path d="M157.541 145.137C157.413 145.041 157.316 144.625 157.348 144.273C157.348 143.665 157.381 143.665 157.669 144.369C157.989 145.137 157.925 145.521 157.541 145.137Z" fill="#FCFCFC"/>
<path d="M158.149 144.657C157.861 143.537 157.893 143.441 158.725 143.441C159.653 143.441 160.229 144.625 159.525 145.073C158.789 145.521 158.373 145.393 158.149 144.657Z" fill="#FCFCFC"/>
<path d="M169.16 145.297C169.16 145.201 169.32 144.689 169.513 144.113C169.961 142.832 170.953 142.768 171.177 144.017C171.273 144.497 171.305 144.913 171.273 144.945C171.113 145.137 169.16 145.425 169.16 145.297Z" fill="#FCFCFC"/>
<path d="M160.421 144.497C160.293 144.401 160.197 144.017 160.197 143.665C160.197 143.153 160.293 143.121 160.677 143.441C160.934 143.665 161.158 144.049 161.158 144.273C161.158 144.753 160.773 144.881 160.421 144.497Z" fill="#FCFCFC"/>
<path d="M171.945 143.857C171.753 142.864 172.169 142.416 173.162 142.544C173.642 142.608 173.802 142.896 173.802 143.601C173.802 144.401 173.674 144.593 172.97 144.657C172.265 144.753 172.105 144.593 171.945 143.857Z" fill="#FCFCFC"/>
<path d="M175.082 143.985C174.666 142.704 174.794 142.32 175.659 142.224C176.427 142.128 176.523 142.224 176.523 143.056C176.523 143.761 176.331 144.049 175.851 144.177C175.499 144.273 175.146 144.177 175.082 143.985Z" fill="#FCFCFC"/>
<path d="M157.06 142.16C157.06 141.552 157.124 141.296 157.22 141.616C157.284 141.904 157.284 142.416 157.22 142.736C157.124 143.024 157.06 142.768 157.06 142.16Z" fill="#FCFCFC"/>
<path d="M157.861 142.576C157.444 142.192 157.636 140.944 158.149 140.752C158.885 140.464 159.237 140.816 159.237 141.872C159.237 142.544 159.077 142.8 158.661 142.8C158.341 142.8 157.957 142.704 157.861 142.576Z" fill="#FCFCFC"/>
<path d="M159.781 141.712C159.653 141.232 159.589 140.72 159.717 140.624C160.037 140.304 160.229 140.816 160.133 141.744L160.037 142.64L159.781 141.712Z" fill="#FCFCFC"/>
<path d="M170.121 141.488C170.121 141.136 170.281 140.944 170.441 141.04C170.633 141.136 170.761 141.456 170.761 141.712C170.761 141.968 170.633 142.16 170.441 142.16C170.281 142.16 170.121 141.872 170.121 141.488Z" fill="#FCFCFC"/>
<path d="M171.561 141.904C171.113 141.424 171.465 140.56 172.202 140.368C173.13 140.144 173.162 140.144 173.45 141.072C173.642 141.648 173.514 141.776 172.682 141.904C172.17 142 171.657 141.968 171.561 141.904Z" fill="#FCFCFC"/>
<path d="M174.506 141.296C174.154 140.976 174.25 139.919 174.602 139.919C174.794 139.919 174.922 139.791 174.922 139.599C174.922 139.439 174.73 139.279 174.474 139.279C173.93 139.279 173.482 137.711 173.93 137.263C174.506 136.686 175.146 137.295 175.53 138.863C175.754 139.695 175.979 140.656 176.075 140.976C176.203 141.392 176.075 141.52 175.466 141.52C175.05 141.52 174.602 141.424 174.506 141.296Z" fill="#FCFCFC"/>
<path d="M176.235 139.599C176.011 138.639 175.434 136.718 175.018 135.31C174.378 133.261 174.314 132.749 174.666 132.525C174.89 132.365 175.178 132.237 175.274 132.237C175.627 132.237 176.907 138.799 176.779 140.079L176.683 141.36L176.235 139.599Z" fill="#FCFCFC"/>
<path d="M156.74 139.439C156.74 138.927 156.804 138.735 156.9 139.055C156.964 139.343 156.964 139.791 156.9 140.016C156.804 140.208 156.74 139.983 156.74 139.439Z" fill="#FCFCFC"/>
<path d="M157.38 139.375C157.508 138.255 158.437 137.999 158.693 139.023C158.917 139.855 158.981 139.759 158.021 140.079C157.348 140.272 157.284 140.208 157.38 139.375Z" fill="#FCFCFC"/>
<path d="M170.889 139.087C170.633 138.159 171.177 137.615 172.201 137.743C172.97 137.839 173.258 139.215 172.618 139.631C171.817 140.143 171.081 139.919 170.889 139.087Z" fill="#FCFCFC"/>
<path d="M159.237 138.831C159.237 138.287 159.397 137.999 159.749 137.999C160.069 137.999 160.197 138.223 160.133 138.703C159.973 139.727 159.237 139.823 159.237 138.831Z" fill="#FCFCFC"/>
<path d="M156.388 137.487C156.388 137.135 156.484 137.038 156.58 137.295C156.676 137.519 156.644 137.807 156.548 137.903C156.452 138.031 156.356 137.839 156.388 137.487Z" fill="#FCFCFC"/>
<path d="M156.996 137.39C156.996 136.91 157.188 136.718 157.669 136.718C158.117 136.718 158.277 136.878 158.213 137.262C158.053 138.095 156.996 138.191 156.996 137.39Z" fill="#FCFCFC"/>
<path d="M158.757 137.102C158.533 136.526 158.533 136.526 159.493 136.27C160.069 136.078 160.197 136.174 160.197 136.654C160.197 137.423 159.045 137.807 158.757 137.102Z" fill="#FCFCFC"/>
<path d="M170.345 136.654C170.121 135.854 170.537 135.438 171.657 135.438C172.201 135.438 172.362 135.63 172.362 136.238C172.362 136.718 172.169 137.038 171.913 137.038C171.657 137.038 171.241 137.134 170.985 137.23C170.697 137.327 170.473 137.134 170.345 136.654Z" fill="#FCFCFC"/>
<path d="M173.13 135.918C172.874 135.278 173.258 134.798 173.994 134.798C174.442 134.798 174.602 135.022 174.602 135.598C174.602 136.174 174.442 136.398 173.962 136.398C173.61 136.398 173.226 136.174 173.13 135.918Z" fill="#FCFCFC"/>
<path d="M156.676 135.47C156.676 134.798 157.413 134.029 157.733 134.382C157.861 134.478 157.957 134.926 157.957 135.342C157.957 135.854 157.765 136.078 157.316 136.078C156.9 136.078 156.676 135.854 156.676 135.47Z" fill="#FCFCFC"/>
<path d="M158.437 135.086C158.181 134.286 158.469 133.933 159.557 133.773C160.549 133.645 160.869 134.702 160.005 135.342C159.173 135.95 158.661 135.854 158.437 135.086Z" fill="#FCFCFC"/>
<path d="M170.025 134.894C169.801 134.702 169.705 133.517 169.897 133.517C169.929 133.517 170.409 133.389 170.985 133.229C171.945 132.941 172.009 132.973 171.977 133.837C171.945 134.478 171.753 134.798 171.273 134.926C170.409 135.15 170.281 135.15 170.025 134.894Z" fill="#FCFCFC"/>
<path d="M168.84 134.157C168.84 133.933 168.936 133.837 169.064 133.933C169.16 134.061 169.16 134.253 169.064 134.381C168.936 134.478 168.84 134.381 168.84 134.157Z" fill="#FCFCFC"/>
<path d="M172.425 133.645C172.521 133.101 173.514 132.301 173.738 132.557C173.834 132.653 173.994 133.037 174.09 133.453C174.314 134.093 174.218 134.157 173.322 134.157C172.553 134.157 172.329 134.029 172.425 133.645Z" fill="#FCFCFC"/>
<path d="M156.996 133.613C156.996 133.453 157.156 133.133 157.316 132.877C157.573 132.493 157.637 132.525 157.637 133.133C157.637 133.517 157.509 133.837 157.316 133.837C157.156 133.837 156.996 133.741 156.996 133.613Z" fill="#FCFCFC"/>
<path d="M157.957 132.909C157.957 132.013 158.629 131.725 159.141 132.397C159.461 132.877 159.461 133.037 159.141 133.261C158.469 133.677 157.957 133.549 157.957 132.909Z" fill="#FCFCFC"/>
<path d="M167.688 132.493C167.112 131.853 167.112 131.821 167.656 132.013C167.976 132.141 168.392 132.237 168.552 132.237C168.712 132.237 168.84 132.461 168.84 132.717C168.84 133.389 168.392 133.325 167.688 132.493Z" fill="#FCFCFC"/>
<path d="M160.805 132.461C159.429 131.405 159.237 129.036 160.517 129.036C161.382 129.036 162.182 130.38 162.054 131.629C161.958 132.781 161.574 133.037 160.805 132.461Z" fill="#FCFCFC"/>
<path d="M169.577 132.653C169.705 132.557 169.897 132.557 170.025 132.653C170.121 132.781 170.025 132.877 169.801 132.877C169.577 132.877 169.481 132.781 169.577 132.653Z" fill="#FCFCFC"/>
<path d="M174.41 131.404C174.506 131.116 174.602 130.828 174.602 130.764C174.602 130.7 174.762 130.636 174.922 130.636C175.114 130.636 175.242 130.924 175.242 131.276C175.242 131.661 175.018 131.917 174.73 131.917C174.378 131.917 174.282 131.757 174.41 131.404Z" fill="#FCFCFC"/>
<path d="M157.636 131.308C157.636 130.572 158.309 129.356 158.693 129.356C159.365 129.356 158.885 131.405 158.181 131.533C157.893 131.597 157.636 131.501 157.636 131.308Z" fill="#FCFCFC"/>
<path d="M164.839 130.956L163.879 130.732L164.743 130.508C165.639 130.252 166.279 130.444 166.279 130.988C166.279 131.308 166.247 131.308 164.839 130.956Z" fill="#FCFCFC"/>
<path d="M163.719 129.42C163.719 128.107 164.455 127.915 165.127 129.068C165.575 129.836 165.607 129.996 165.191 129.996C164.935 129.996 164.519 130.092 164.231 130.188C163.847 130.348 163.719 130.156 163.719 129.42Z" fill="#FCFCFC"/>
<path d="M169.288 129.868C167.848 129.228 166.92 127.531 166.92 125.515C166.92 124.074 167.048 123.722 167.912 122.922C168.456 122.41 169 121.993 169.16 121.993C169.865 121.993 172.458 124.458 173.322 125.995L174.314 127.755L173.258 128.876C172.041 130.156 170.697 130.508 169.288 129.868Z" fill="#FCFCFC"/>
<path d="M162.598 129.036C162.502 128.876 162.566 128.716 162.726 128.716C162.918 128.716 163.078 128.876 163.078 129.036C163.078 129.228 163.014 129.356 162.95 129.356C162.854 129.356 162.694 129.228 162.598 129.036Z" fill="#FCFCFC"/>
<path d="M158.405 128.524C158.501 128.235 158.597 127.947 158.597 127.883C158.597 127.819 158.885 127.755 159.237 127.755C160.037 127.755 160.069 128.267 159.269 128.716C158.405 129.164 158.181 129.132 158.405 128.524Z" fill="#FCFCFC"/>
<path d="M160.934 128.14C160.197 128.043 159.973 127.627 160.453 127.339C160.581 127.243 161.158 127.083 161.734 126.955C162.598 126.763 162.758 126.827 162.758 127.371C162.758 128.043 162.086 128.332 160.934 128.14Z" fill="#FCFCFC"/>
<path d="M163.398 127.051C163.398 126.667 163.43 126.443 163.494 126.507C163.526 126.571 163.783 126.891 164.007 127.211C164.391 127.659 164.359 127.755 163.911 127.755C163.591 127.755 163.398 127.499 163.398 127.051Z" fill="#FCFCFC"/>
<path d="M158.917 126.827C158.917 126.635 159.077 126.411 159.237 126.315C159.429 126.219 159.557 126.347 159.557 126.603C159.557 126.891 159.429 127.115 159.237 127.115C159.077 127.115 158.917 126.987 158.917 126.827Z" fill="#FCFCFC"/>
<path d="M160.101 126.347C159.845 125.707 162.118 125.002 162.502 125.611C162.79 126.123 162.502 126.347 161.286 126.603C160.55 126.763 160.229 126.699 160.101 126.347Z" fill="#FCFCFC"/>
<path d="M163.11 125.322C163.11 124.97 163.206 124.874 163.302 125.13C163.398 125.354 163.366 125.643 163.27 125.739C163.174 125.867 163.078 125.675 163.11 125.322Z" fill="#FCFCFC"/>
<path d="M160.39 124.81C160.774 124.106 161.894 122.954 162.182 122.954C162.502 122.954 162.534 124.458 162.214 124.65C162.054 124.714 161.542 124.874 161.062 125.002C160.357 125.162 160.197 125.13 160.39 124.81Z" fill="#FCFCFC"/>
<path d="M162.95 124.074C162.598 123.114 162.758 122.698 163.526 122.57C164.327 122.409 164.327 122.409 163.815 123.402C163.174 124.682 163.206 124.682 162.95 124.074Z" fill="#FCFCFC"/>
<path d="M162.758 122.153C162.758 122.089 163.399 121.641 164.199 121.193C165.159 120.617 165.831 120.425 166.312 120.553C166.888 120.745 166.728 120.873 165.319 121.545C163.751 122.249 162.758 122.505 162.758 122.153Z" fill="#FCFCFC"/>
<path d="M180.524 93.7918C179.66 92.5434 177.835 90.5267 176.523 89.3103C175.21 88.0939 174.346 87.1016 174.602 87.1016C175.306 87.1016 180.684 88.5741 182.029 89.1503C183.149 89.6304 183.181 89.6944 182.893 90.6868C182.733 91.263 182.605 92.7035 182.605 93.8879C182.605 95.1043 182.509 96.0646 182.381 96.0646C182.221 96.0646 181.42 95.0402 180.524 93.7918Z" fill="#FCFCFC"/>
<path d="M115.382 190.753C114.07 190.08 113.782 189.696 112.117 186.399C109.716 181.726 109.652 180.637 111.925 183.294C112.821 184.35 114.902 186.527 116.535 188.128C119.319 190.817 119.448 191.009 118.519 190.881C117.847 190.785 117.591 190.849 117.751 191.105C118.135 191.681 116.919 191.521 115.382 190.753Z" fill="#FCFCFC"/>
<path fill-rule="evenodd" clip-rule="evenodd" d="M169.029 249.074C168.763 248.443 169.059 247.716 169.69 247.45L170.38 247.157C177.085 244.288 180.934 242.565 183.549 239.828C186.164 237.092 186.477 233.072 186.968 230.626C187.103 229.955 188.623 231.134 189.294 231.269C189.966 231.403 190.4 232.057 190.266 232.728C189.675 235.669 188.084 238.472 185.523 241.134C182.971 243.786 178.029 246.629 170.652 249.735C170.021 250.001 169.294 249.705 169.029 249.074Z" fill="#404040"/>
<path fill-rule="evenodd" clip-rule="evenodd" d="M199.351 121.35C199.939 121 200.7 121.193 201.05 121.782C204.557 127.672 206.435 134.406 206.435 141.411C206.435 162.636 189.23 179.841 168.006 179.841C162.366 179.841 156.896 178.625 151.887 176.307C151.265 176.02 148.918 173.731 151.282 174.662C153.646 175.593 162.793 177.682 168.071 177.682C187.926 177.682 201.973 161.266 201.973 141.411C201.973 134.855 199.351 129.036 198.92 123.05C198.87 122.356 198.763 121.701 199.351 121.35Z" fill="#404040"/>
<path fill-rule="evenodd" clip-rule="evenodd" d="M76.577 215.174C77.0152 214.648 77.7968 213.585 78.3229 214.023C80.481 215.821 82.7839 217.904 85.2474 218.306C87.8108 218.724 90.8519 218.724 94.3668 218.298C95.0465 218.216 95.6642 218.7 95.7465 219.38C95.8287 220.06 95.3444 220.677 94.6648 220.76C90.9322 221.212 87.6613 221.212 84.8481 220.753C81.9349 220.277 79.2257 218.994 76.7361 216.92C76.21 216.482 76.1388 215.7 76.577 215.174Z" fill="#404040"/>
<path d="M102.898 171.802C101.297 170.522 97.8721 166.745 95.2792 163.415C93.9348 161.655 92.4303 158.07 91.534 154.452C91.1178 152.82 90.7017 151.347 90.6057 151.155C90.4776 150.995 89.9655 148.722 89.4533 146.098C88.685 142.384 88.8475 141.188 88.1728 136.746C87.8872 134.866 87.6287 133.37 87.6287 133.37L88.4609 132.301C88.9411 131.661 89.5485 130.601 89.7734 129.996C90.7977 127.24 98.3203 118.6 98.5443 118.824C98.6084 118.888 98.3523 120.393 97.9041 122.153C97.488 123.914 96.9758 126.571 96.7517 128.075C96.4316 130.572 96.3036 130.86 95.3113 131.693C94.0628 132.749 91.694 136.142 91.694 136.846C91.694 137.807 93.1345 137.167 94.639 135.598L96.1755 133.997V135.758C96.1755 136.91 95.9515 137.967 95.5353 138.799C94.7351 140.368 94.7351 142.032 95.5033 143.313C95.8875 143.953 96.2396 145.489 96.4636 147.314C97.456 155.573 99.5687 162.743 103.186 169.946C104.082 171.738 104.786 173.211 104.754 173.211C104.69 173.211 103.858 172.57 102.898 171.802Z" fill="#FCFCFC"/>
<path fill-rule="evenodd" clip-rule="evenodd" d="M236.095 191.553L238.4 192.577C238.878 192.798 244.15 195.331 250.483 198.374C260.693 203.28 273.661 209.511 273.74 209.511C273.868 209.511 274.468 208.122 274.604 206.502C274.924 203.013 276.108 198.275 277.485 194.978C278.125 193.506 278.637 191.665 278.637 191.505C278.637 191.432 278.117 191.222 277.265 190.879C276.251 190.47 274.767 189.871 273.131 189.088C265.065 185.215 249.283 177.308 247.331 176.124C245.41 175.003 245.026 174.907 245.026 175.644C245.026 176.604 243.073 181.053 241.569 183.454C240.769 184.767 239.2 187.135 238.08 188.704L236.095 191.553ZM273.195 203.749C274.113 204.281 272.523 205.061 272.139 205.19C269.877 205.382 267.214 204.956 265.033 203.685C263.892 202.876 254.91 197.886 248.951 194.576C246.227 193.062 244.135 191.9 243.713 191.649C242.369 190.849 241.089 189.984 240.864 189.728C240.192 188.864 240.832 188.48 242.721 188.64C243.857 188.736 271.213 202.6 273.195 203.749Z" fill="#FCFCFC"/>
<path d="M213.111 194.434C212.279 194.146 211.382 193.505 210.806 192.769L209.846 191.585L213.239 188.224C218.457 183.102 222.298 177.505 225.755 171.262C226.908 169.182 230.333 160.79 230.749 159.862C231.389 158.518 231.869 158.006 233.246 157.237C234.878 156.277 236.735 155.957 237.535 156.501C239.072 157.525 239.072 160.758 237.535 166.328C235.839 172.442 233.566 176.828 228.86 183.134C228.124 184.094 226.748 185.983 225.755 187.295C223.098 190.817 221.37 192.513 219.033 193.826C216.728 195.106 215.384 195.266 213.111 194.434Z" fill="#FCFCFC"/>
<path d="M225.179 193.698L224.507 193.025C224.507 193.025 235.664 178.85 237.663 173.627C239.189 169.641 240.087 168.51 241.298 168.51C241.976 168.51 242.529 168.665 242.785 169.049C243.233 169.721 243.665 170.554 243.089 173.403C242.128 178.012 240.656 181.053 236.238 187.616C235.214 189.12 233.902 190.785 233.326 191.361C231.981 192.609 228.956 193.89 227.196 194.178C226.075 194.338 225.755 194.274 225.179 193.698Z" fill="#FCFCFC"/>
<path fill-rule="evenodd" clip-rule="evenodd" d="M243.92 178.875C244.566 177.398 245.026 176.11 245.026 175.644C245.026 174.907 245.41 175.003 247.331 176.124C249.283 177.308 265.065 185.215 273.132 189.088C276.141 190.529 278.637 191.345 278.637 191.505C278.637 191.665 243.236 180.441 243.92 178.875Z" fill="#F5F5F5"/>
<path fill-rule="evenodd" clip-rule="evenodd" d="M134.397 180.701C130.331 178.044 124.185 171.802 121.208 167.353C116.951 160.951 114.134 154.1 112.757 146.738C111.765 141.392 111.797 133.165 112.789 128.396C113.814 123.53 115.126 119.817 117.463 115.111C120.184 109.669 123.065 105.668 127.386 101.346C131.624 97.1086 112.789 114.634 117.463 145.989C121.208 172.266 137.304 182.617 134.397 180.701Z" fill="#F5F5F5"/>
</g>
</svg>
