<svg width="24" height="24" viewBox="0 0 24 24" fill="none" xmlns="http://www.w3.org/2000/svg">
<path d="M15.7501 20.9998C15.7501 21.1987 15.6711 21.3895 15.5305 21.5301C15.3898 21.6708 15.199 21.7498 15.0001 21.7498H9.00014C8.80122 21.7498 8.61046 21.6708 8.46981 21.5301C8.32915 21.3895 8.25014 21.1987 8.25014 20.9998C8.25014 20.8009 8.32915 20.6101 8.46981 20.4695C8.61046 20.3288 8.80122 20.2498 9.00014 20.2498H15.0001C15.199 20.2498 15.3898 20.3288 15.5305 20.4695C15.6711 20.6101 15.7501 20.8009 15.7501 20.9998ZM19.4814 10.4998C19.4889 8.52138 18.7114 6.62074 17.3195 5.21475C15.9275 3.80876 14.0348 3.01222 12.0564 2.99982H12.0001C11.0165 3.00105 10.0426 3.19602 9.13431 3.5736C8.22598 3.95117 7.40091 4.50396 6.70621 5.2004C6.01151 5.89684 5.46079 6.72329 5.08549 7.63257C4.71019 8.54184 4.51765 9.51614 4.51889 10.4998C4.51889 13.7154 3.85326 15.5342 3.30014 16.4904C3.16714 16.7194 3.09631 16.9791 3.09467 17.2439C3.09302 17.5086 3.16062 17.7692 3.29076 17.9998C3.42202 18.2291 3.61186 18.4194 3.84083 18.5512C4.06981 18.6829 4.3297 18.7515 4.59389 18.7498H19.4064C19.6706 18.7515 19.9305 18.6829 20.1594 18.5512C20.3884 18.4194 20.5782 18.2291 20.7095 17.9998C20.8396 17.7692 20.9072 17.5086 20.9056 17.2439C20.904 16.9791 20.8331 16.7194 20.7001 16.4904C20.147 15.5342 19.4814 13.7154 19.4814 10.4998ZM21.422 5.86857C20.5669 4.12221 19.2424 2.64843 17.597 1.61232C17.4279 1.50665 17.2238 1.47247 17.0295 1.5173C16.8353 1.56213 16.6667 1.68231 16.5611 1.85138C16.4554 2.02046 16.4212 2.22459 16.4661 2.41886C16.5109 2.61314 16.6311 2.78165 16.8001 2.88732C18.206 3.77685 19.341 5.035 20.0814 6.52482C20.1421 6.6521 20.2378 6.75941 20.3574 6.83415C20.477 6.90888 20.6154 6.94793 20.7564 6.94669C20.8696 6.94324 20.981 6.91777 21.0845 6.8717C21.262 6.7831 21.3971 6.62782 21.4604 6.43982C21.5236 6.25182 21.5098 6.04642 21.422 5.86857ZM3.91889 6.52482C4.65931 5.035 5.79424 3.77685 7.20014 2.88732C7.28385 2.835 7.35645 2.7667 7.41377 2.68632C7.47109 2.60594 7.51202 2.51506 7.53422 2.41886C7.55642 2.32267 7.55945 2.22304 7.54315 2.12567C7.52684 2.0283 7.49152 1.9351 7.4392 1.85138C7.38687 1.76766 7.31857 1.69507 7.2382 1.63775C7.15782 1.58043 7.06694 1.5395 6.97074 1.5173C6.77646 1.47247 6.57234 1.50665 6.40326 1.61232C4.75783 2.64843 3.43337 4.12221 2.57826 5.86857C2.49043 6.04642 2.47664 6.25182 2.53989 6.43982C2.60314 6.62782 2.73829 6.7831 2.91576 6.8717C3.01923 6.91777 3.13068 6.94324 3.24389 6.94669C3.38489 6.94793 3.52331 6.90888 3.64288 6.83415C3.76245 6.75941 3.85821 6.6521 3.91889 6.52482Z" fill="#404040"/>
</svg>
