<svg width="24" height="24" viewBox="0 0 24 24" fill="none" xmlns="http://www.w3.org/2000/svg">
<path d="M12 18.375C15.5208 18.375 18.375 15.5208 18.375 12C18.375 8.47918 15.5208 5.625 12 5.625C8.47918 5.625 5.625 8.47918 5.625 12C5.625 15.5208 8.47918 18.375 12 18.375Z" fill="#404040"/>
<path d="M17.8751 12C17.8751 15.0763 15.5108 17.6003 12.5001 17.854L12.5 12V12L12.5001 6.14598C15.5108 6.39971 17.8751 8.92374 17.8751 12Z" fill="#FCFCFC" stroke="#404040"/>
<path d="M12 4.125C12.1989 4.125 12.3897 4.04598 12.5303 3.90533C12.671 3.76468 12.75 3.57391 12.75 3.375V1.5C12.75 1.30109 12.671 1.11032 12.5303 0.96967C12.3897 0.829018 12.1989 0.75 12 0.75C11.8011 0.75 11.6103 0.829018 11.4697 0.96967C11.329 1.11032 11.25 1.30109 11.25 1.5V3.375C11.25 3.57391 11.329 3.76468 11.4697 3.90533C11.6103 4.04598 11.8011 4.125 12 4.125Z" fill="#404040"/>
<path d="M5.37181 6.43143C5.51358 6.56944 5.70363 6.64667 5.90149 6.64667C6.09936 6.64667 6.2894 6.56944 6.43118 6.43143C6.57144 6.29083 6.65021 6.10034 6.65021 5.90174C6.65021 5.70314 6.57144 5.51265 6.43118 5.37205L5.10931 4.0408C5.04206 3.95887 4.95841 3.89192 4.86372 3.84426C4.76904 3.7966 4.66544 3.7693 4.55957 3.7641C4.4537 3.7589 4.34791 3.77592 4.24901 3.81407C4.15012 3.85222 4.06031 3.91065 3.98536 3.9856C3.9104 4.06055 3.85197 4.15036 3.81383 4.24926C3.77568 4.34815 3.75865 4.45394 3.76385 4.55981C3.76905 4.66568 3.79636 4.76929 3.84402 4.86397C3.89167 4.95865 3.95862 5.0423 4.04056 5.10955L5.37181 6.43143Z" fill="#404040"/>
<path d="M4.125 12C4.125 11.8011 4.04598 11.6103 3.90533 11.4697C3.76468 11.329 3.57391 11.25 3.375 11.25H1.5C1.30109 11.25 1.11032 11.329 0.96967 11.4697C0.829018 11.6103 0.75 11.8011 0.75 12C0.75 12.1989 0.829018 12.3897 0.96967 12.5303C1.11032 12.671 1.30109 12.75 1.5 12.75H3.375C3.57391 12.75 3.76468 12.671 3.90533 12.5303C4.04598 12.3897 4.125 12.1989 4.125 12Z" fill="#404040"/>
<path d="M5.37189 17.5687L4.04064 18.8906C3.89981 19.0328 3.8208 19.2248 3.8208 19.425C3.8208 19.6251 3.89981 19.8172 4.04064 19.9594C4.18564 20.0954 4.37623 20.1723 4.57502 20.175C4.77418 20.1741 4.96543 20.097 5.10939 19.9594L6.43127 18.6281C6.56054 18.4854 6.63 18.2985 6.62526 18.1061C6.62052 17.9136 6.54195 17.7303 6.40581 17.5942C6.26968 17.458 6.08641 17.3795 5.89394 17.3747C5.70148 17.37 5.51456 17.4395 5.37189 17.5687Z" fill="#404040"/>
<path d="M12 19.875C11.8011 19.875 11.6103 19.954 11.4697 20.0947C11.329 20.2353 11.25 20.4261 11.25 20.625V22.5C11.25 22.6989 11.329 22.8897 11.4697 23.0303C11.6103 23.171 11.8011 23.25 12 23.25C12.1989 23.25 12.3897 23.171 12.5303 23.0303C12.671 22.8897 12.75 22.6989 12.75 22.5V20.625C12.75 20.4261 12.671 20.2353 12.5303 20.0947C12.3897 19.954 12.1989 19.875 12 19.875Z" fill="#404040"/>
<path d="M18.6281 17.5687C18.4854 17.4395 18.2985 17.37 18.1061 17.3747C17.9136 17.3795 17.7303 17.458 17.5942 17.5942C17.458 17.7303 17.3795 17.9136 17.3747 18.1061C17.37 18.2985 17.4395 18.4854 17.5687 18.6281L18.8906 19.9594C19.0346 20.097 19.2258 20.1741 19.425 20.175C19.6238 20.1723 19.8144 20.0954 19.9594 19.9594C20.1002 19.8172 20.1792 19.6251 20.1792 19.425C20.1792 19.2248 20.1002 19.0328 19.9594 18.8906L18.6281 17.5687Z" fill="#404040"/>
<path d="M22.5 11.25H20.625C20.4261 11.25 20.2353 11.329 20.0947 11.4697C19.954 11.6103 19.875 11.8011 19.875 12C19.875 12.1989 19.954 12.3897 20.0947 12.5303C20.2353 12.671 20.4261 12.75 20.625 12.75H22.5C22.6989 12.75 22.8897 12.671 23.0303 12.5303C23.171 12.3897 23.25 12.1989 23.25 12C23.25 11.8011 23.171 11.6103 23.0303 11.4697C22.8897 11.329 22.6989 11.25 22.5 11.25Z" fill="#404040"/>
<path d="M18.1033 6.6468C18.2007 6.64766 18.2974 6.62903 18.3875 6.592C18.4777 6.55497 18.5595 6.50029 18.6283 6.43117L19.9595 5.1093C20.0791 4.96358 20.1402 4.77858 20.131 4.59029C20.1217 4.402 20.0428 4.22388 19.9095 4.09058C19.7762 3.95728 19.5981 3.87833 19.4098 3.86908C19.2215 3.85983 19.0365 3.92095 18.8908 4.04055L17.5689 5.3718C17.4286 5.5124 17.3499 5.70289 17.3499 5.90149C17.3499 6.10008 17.4286 6.29057 17.5689 6.43117C17.6387 6.50143 17.7221 6.55678 17.8139 6.59384C17.9058 6.63091 18.0042 6.64892 18.1033 6.6468Z" fill="#404040"/>
</svg>
