<svg width="32" height="32" viewBox="0 0 32 32" fill="none" xmlns="http://www.w3.org/2000/svg">
<path d="M16 22V29" stroke="#404040" stroke-width="1.5" stroke-linecap="round" stroke-linejoin="round"/>
<path d="M11 29H21" stroke="#404040" stroke-width="1.5" stroke-linecap="round" stroke-linejoin="round"/>
<path d="M9.99992 3H21.9999L25.2572 14.0347C25.4612 14.724 25.4108 15.4637 25.115 16.1188C24.3221 17.8718 23.0405 19.359 21.4238 20.4021C19.8071 21.4452 17.9239 22 15.9999 22C14.076 22 12.1928 21.4452 10.5761 20.4021C8.95941 19.359 7.6778 17.8719 6.88486 16.1189C6.5891 15.4637 6.53863 14.7241 6.74267 14.0348L9.99992 3Z" stroke="#404040" stroke-width="1.5" stroke-linecap="round" stroke-linejoin="round"/>
<path d="M7.18555 12.5346C8.51036 11.8305 11.5918 10.7959 16 13C20.6944 15.3472 23.8843 14.0215 25.0502 13.3334" stroke="#404040" stroke-width="1.5" stroke-linecap="round" stroke-linejoin="round"/>
</svg>
