<svg width="32" height="32" viewBox="0 0 32 32" fill="none" xmlns="http://www.w3.org/2000/svg">
<path d="M26.1923 10.0503L21.9858 14L25.9858 25L22.9858 28L17.0099 19.2526L13.9858 22V25L10.9858 28L9.21178 22.7682L3.98584 21L6.98584 18H9.98584L12.9858 15L3.98584 9.00001L6.98584 6.00001L17.9858 10L21.9497 5.80762L21.8645 5.87869C22.143 5.59961 22.4737 5.37816 22.8378 5.22699C23.2019 5.07582 23.5923 4.9979 23.9865 4.99768C24.3808 4.99746 24.7712 5.07496 25.1355 5.22573C25.4997 5.3765 25.8307 5.59759 26.1095 5.87636C26.3883 6.15513 26.6094 6.48612 26.7601 6.85039C26.9109 7.21467 26.9884 7.60509 26.9882 7.99933C26.988 8.39357 26.91 8.78391 26.7589 9.14802C26.6077 9.51212 26.3862 9.84287 26.1072 10.1213L26.1923 10.0503Z" stroke="#404040" stroke-width="1.5" stroke-linecap="round" stroke-linejoin="round"/>
</svg>
