<svg width="24" height="24" viewBox="0 0 24 24" fill="none" xmlns="http://www.w3.org/2000/svg">
<path d="M22.0139 14.1004L20.6191 12.2409C20.6212 12.0766 20.6195 11.9013 20.6171 11.7615L22.0133 9.89999C22.0816 9.80889 22.1283 9.70342 22.1498 9.59159C22.1713 9.47976 22.1671 9.3645 22.1374 9.25454C21.9033 8.38694 21.5582 7.55315 21.1108 6.77383C21.054 6.67504 20.9755 6.59048 20.8812 6.52656C20.7869 6.46265 20.6792 6.42106 20.5665 6.40496L18.2708 6.07711C18.1584 5.95819 18.0427 5.84245 17.9236 5.7299L17.5958 3.43522C17.5797 3.32248 17.5382 3.21489 17.4743 3.12061C17.4104 3.02633 17.3259 2.94784 17.2272 2.89108C16.4482 2.44314 15.6146 2.09756 14.7472 1.8629C14.6372 1.83317 14.5219 1.82889 14.41 1.85037C14.2981 1.87186 14.1926 1.91855 14.1014 1.9869L12.2463 3.37842C12.0828 3.37389 11.9188 3.37389 11.7553 3.37842L9.90102 1.9876C9.8099 1.91928 9.70442 1.8726 9.59259 1.8511C9.48075 1.8296 9.36548 1.83384 9.25553 1.8635C8.38792 2.0976 7.55413 2.44264 6.77481 2.89008C6.67602 2.94684 6.59146 3.02535 6.52754 3.11967C6.46362 3.21398 6.42202 3.32162 6.4059 3.43441L6.0781 5.73005C5.95922 5.84243 5.84348 5.95818 5.73088 6.07731L3.43621 6.40502C3.32347 6.42112 3.21588 6.46268 3.1216 6.52655C3.02732 6.59042 2.94882 6.67493 2.89206 6.77366C2.44411 7.55269 2.09853 8.38626 1.86388 9.25373C1.83415 9.36371 1.82986 9.47902 1.85136 9.59091C1.87285 9.7028 1.91956 9.80831 1.98794 9.89945L3.38274 11.759C3.38064 11.9233 3.38233 12.0985 3.38476 12.2384L1.98858 14.0999C1.92024 14.191 1.87355 14.2965 1.85204 14.4083C1.83053 14.5201 1.83477 14.6354 1.86443 14.7453C2.09855 15.6129 2.44361 16.4467 2.89106 17.2261C2.94781 17.3248 3.02632 17.4094 3.12064 17.4733C3.21496 17.5372 3.3226 17.5788 3.43538 17.5949L5.73107 17.9228C5.84345 18.0417 5.95917 18.1574 6.07824 18.27L6.406 20.5647C6.4221 20.6774 6.46368 20.785 6.52755 20.8793C6.59143 20.9735 6.67595 21.052 6.77468 21.1088C7.55369 21.5567 8.38723 21.9023 9.25466 22.137C9.36465 22.1667 9.47996 22.171 9.59186 22.1495C9.70375 22.128 9.80928 22.0813 9.90043 22.013L11.7555 20.6215C11.919 20.6261 12.083 20.6261 12.2465 20.6215L14.1008 22.0123C14.1919 22.0806 14.2974 22.1273 14.4092 22.1488C14.5211 22.1703 14.6364 22.1661 14.7463 22.1364C15.6139 21.9023 16.4477 21.5572 17.227 21.1098C17.3258 21.053 17.4104 20.9745 17.4743 20.8802C17.5382 20.7859 17.5798 20.6783 17.5959 20.5655L17.9245 18.2643C18.0422 18.1496 18.1648 18.0245 18.2621 17.9239L20.5656 17.5949C20.6784 17.5788 20.786 17.5372 20.8802 17.4733C20.9745 17.4095 21.053 17.325 21.1098 17.2262C21.5577 16.4472 21.9033 15.6136 22.138 14.7462C22.1677 14.6362 22.172 14.5209 22.1505 14.409C22.129 14.2971 22.0823 14.1916 22.0139 14.1004V14.1004ZM12.0009 16.1249C11.185 16.1249 10.3875 15.883 9.70915 15.4297C9.03079 14.9764 8.50208 14.3322 8.18987 13.5785C7.87766 12.8247 7.79597 11.9953 7.95513 11.1951C8.1143 10.395 8.50717 9.65997 9.08406 9.08308C9.66095 8.50619 10.396 8.11332 11.1961 7.95416C11.9963 7.79499 12.8257 7.87668 13.5794 8.18889C14.3332 8.50111 14.9774 9.02982 15.4307 9.70817C15.8839 10.3865 16.1259 11.184 16.1259 11.9999C16.1246 13.0935 15.6896 14.142 14.9163 14.9153C14.143 15.6887 13.0945 16.1237 12.0009 16.1249V16.1249Z" fill="#404040"/>
</svg>
