<svg width="62" height="14" viewBox="0 0 62 14" fill="none" xmlns="http://www.w3.org/2000/svg">
<path d="M2.312 1.832V8.744C2.312 9.50133 2.50933 10.0827 2.904 10.488C3.29867 10.8827 3.85333 11.08 4.568 11.08C5.29333 11.08 5.85333 10.8827 6.248 10.488C6.64267 10.0827 6.84 9.50133 6.84 8.744V1.832H9.096V8.728C9.096 9.67733 8.888 10.4827 8.472 11.144C8.06667 11.7947 7.51733 12.2853 6.824 12.616C6.14133 12.9467 5.37867 13.112 4.536 13.112C3.704 13.112 2.94667 12.9467 2.264 12.616C1.592 12.2853 1.05867 11.7947 0.664 11.144C0.269333 10.4827 0.072 9.67733 0.072 8.728V1.832H2.312ZM13.5003 1.832V13H11.2603V1.832H13.5003ZM20.6619 3.08C20.2672 3.08 19.9365 2.95733 19.6699 2.712C19.4139 2.456 19.2859 2.14133 19.2859 1.768C19.2859 1.39467 19.4139 1.08533 19.6699 0.839999C19.9365 0.583999 20.2672 0.455999 20.6619 0.455999C21.0565 0.455999 21.3819 0.583999 21.6379 0.839999C21.9045 1.08533 22.0379 1.39467 22.0379 1.768C22.0379 2.14133 21.9045 2.456 21.6379 2.712C21.3819 2.95733 21.0565 3.08 20.6619 3.08ZM21.7659 4.136V13H19.5259V4.136H21.7659ZM23.403 8.568C23.403 7.65067 23.5897 6.85067 23.963 6.168C24.3363 5.47467 24.8537 4.94133 25.515 4.568C26.1763 4.184 26.9337 3.992 27.787 3.992C28.8857 3.992 29.7923 4.26933 30.507 4.824C31.2323 5.368 31.7177 6.136 31.963 7.128H29.547C29.419 6.744 29.2003 6.44533 28.891 6.232C28.5923 6.008 28.219 5.896 27.771 5.896C27.131 5.896 26.6243 6.13067 26.251 6.6C25.8777 7.05867 25.691 7.71467 25.691 8.568C25.691 9.41067 25.8777 10.0667 26.251 10.536C26.6243 10.9947 27.131 11.224 27.771 11.224C28.6777 11.224 29.2697 10.8187 29.547 10.008H31.963C31.7177 10.968 31.2323 11.7307 30.507 12.296C29.7817 12.8613 28.875 13.144 27.787 13.144C26.9337 13.144 26.1763 12.9573 25.515 12.584C24.8537 12.2 24.3363 11.6667 23.963 10.984C23.5897 10.2907 23.403 9.48533 23.403 8.568ZM37.54 13.144C36.6867 13.144 35.9187 12.9573 35.236 12.584C34.5533 12.2 34.0147 11.6613 33.62 10.968C33.236 10.2747 33.044 9.47467 33.044 8.568C33.044 7.66133 33.2413 6.86133 33.636 6.168C34.0413 5.47467 34.5907 4.94133 35.284 4.568C35.9773 4.184 36.7507 3.992 37.604 3.992C38.4573 3.992 39.2307 4.184 39.924 4.568C40.6173 4.94133 41.1613 5.47467 41.556 6.168C41.9613 6.86133 42.164 7.66133 42.164 8.568C42.164 9.47467 41.956 10.2747 41.54 10.968C41.1347 11.6613 40.58 12.2 39.876 12.584C39.1827 12.9573 38.404 13.144 37.54 13.144ZM37.54 11.192C37.9453 11.192 38.324 11.096 38.676 10.904C39.0387 10.7013 39.3267 10.4027 39.54 10.008C39.7533 9.61333 39.86 9.13333 39.86 8.568C39.86 7.72533 39.636 7.08 39.188 6.632C38.7507 6.17333 38.212 5.944 37.572 5.944C36.932 5.944 36.3933 6.17333 35.956 6.632C35.5293 7.08 35.316 7.72533 35.316 8.568C35.316 9.41067 35.524 10.0613 35.94 10.52C36.3667 10.968 36.9 11.192 37.54 11.192ZM48.7191 4.008C49.7751 4.008 50.6285 4.344 51.2791 5.016C51.9298 5.67733 52.2551 6.60533 52.2551 7.8V13H50.0151V8.104C50.0151 7.4 49.8391 6.86133 49.4871 6.488C49.1351 6.104 48.6551 5.912 48.0471 5.912C47.4285 5.912 46.9378 6.104 46.5751 6.488C46.2231 6.86133 46.0471 7.4 46.0471 8.104V13H43.8071V4.136H46.0471V5.24C46.3458 4.856 46.7245 4.55733 47.1831 4.344C47.6525 4.12 48.1645 4.008 48.7191 4.008ZM57.7773 13.144C57.0519 13.144 56.4013 13.016 55.8253 12.76C55.2493 12.4933 54.7906 12.136 54.4493 11.688C54.1186 11.24 53.9373 10.744 53.9053 10.2H56.1613C56.2039 10.5413 56.3693 10.824 56.6573 11.048C56.9559 11.272 57.3239 11.384 57.7613 11.384C58.1879 11.384 58.5186 11.2987 58.7533 11.128C58.9986 10.9573 59.1213 10.7387 59.1213 10.472C59.1213 10.184 58.9719 9.97067 58.6733 9.832C58.3853 9.68267 57.9213 9.52267 57.2812 9.352C56.6199 9.192 56.0759 9.02667 55.6493 8.856C55.2333 8.68533 54.8706 8.424 54.5613 8.072C54.2626 7.72 54.1133 7.24533 54.1133 6.648C54.1133 6.15733 54.2519 5.70933 54.5293 5.304C54.8173 4.89867 55.2226 4.57867 55.7453 4.344C56.2786 4.10933 56.9026 3.992 57.6173 3.992C58.6733 3.992 59.5159 4.25867 60.1453 4.792C60.7746 5.31467 61.1213 6.024 61.1853 6.92H59.0413C59.0093 6.568 58.8599 6.29067 58.5933 6.088C58.3373 5.87467 57.9906 5.768 57.5533 5.768C57.1479 5.768 56.8333 5.84267 56.6093 5.992C56.3959 6.14133 56.2893 6.34933 56.2893 6.616C56.2893 6.91467 56.4386 7.144 56.7373 7.304C57.0359 7.45333 57.4999 7.608 58.1293 7.768C58.7693 7.928 59.2973 8.09333 59.7133 8.264C60.1293 8.43467 60.4866 8.70133 60.7853 9.064C61.0946 9.416 61.2546 9.88533 61.2653 10.472C61.2653 10.984 61.1213 11.4427 60.8333 11.848C60.5559 12.2533 60.1506 12.5733 59.6173 12.808C59.0946 13.032 58.4813 13.144 57.7773 13.144Z" fill="#404040"/>
</svg>
